# Made in Blockbench 4.12.5
mtllib rings.mtl

o torus
v 0.85875875 0.26029875 1.79289625
v 0.963495 0.192649375 2.045753125
v 0.963495 0.057350625 2.045753125
v 0.85875875 -0.010298749999999995 1.79289625
v 0.8316868749999999 0.057350625 1.790039375
v 0.8316868749999999 0.192649375 1.790039375
v 1.54289625 0.26029875 1.10875875
v 1.795753125 0.192649375 1.213495
v 1.795753125 0.057350625 1.213495
v 1.54289625 -0.010298749999999995 1.10875875
v 1.477539375 0.057350625 1.107575
v 1.477539375 0.192649375 1.107575
v 1.54289625 0.26029875 -0.60875875
v 1.795753125 0.192649375 -0.713495
v 1.795753125 0.057350625 -0.713495
v 1.54289625 -0.010298749999999995 -0.60875875
v 1.477539375 0.057350625 -0.607575
v 1.477539375 0.192649375 -0.607575
v 0.85875875 0.26029875 -1.29289625
v 0.963495 0.192649375 -1.545753125
v 0.963495 0.057350625 -1.545753125
v 0.85875875 -0.010298749999999995 -1.29289625
v 0.8316868749999999 0.057350625 -1.290039375
v 0.8316868749999999 0.192649375 -1.290039375
v -0.92125875 0.26029875 -1.29289625
v -1.025995 0.192649375 -1.545753125
v -1.025995 0.057350625 -1.545753125
v -0.92125875 -0.010298749999999995 -1.29289625
v -0.8941868749999999 0.057350625 -1.290039375
v -0.8941868749999999 0.192649375 -1.290039375
v -1.60539625 0.26029875 -0.60875875
v -1.858253125 0.192649375 -0.713495
v -1.858253125 0.057350625 -0.713495
v -1.60539625 -0.010298749999999995 -0.60875875
v -1.540039375 0.057350625 -0.607575
v -1.540039375 0.192649375 -0.607575
v -1.60539625 0.26029875 1.10875875
v -1.858253125 0.192649375 1.213495
v -1.858253125 0.057350625 1.213495
v -1.60539625 -0.010298749999999995 1.10875875
v -1.540039375 0.057350625 1.107575
v -1.540039375 0.192649375 1.107575
v -0.92125875 0.26029875 1.79289625
v -1.025995 0.192649375 2.045753125
v -1.025995 0.057350625 2.045753125
v -0.92125875 -0.010298749999999995 1.79289625
v -0.8941868749999999 0.057350625 1.790039375
v -0.8941868749999999 0.192649375 1.790039375
v -1.049913125 0.057350625 2.353495625
v 0.987413125 0.057350625 2.353495625
v -1.049913125 0.192649375 2.353495625
v 0.987413125 0.192649375 2.353495625
v 1.8399475 0.057350625 1.507689375
v 1.8399475 0.192649375 1.507689375
v -1.9024475 0.057350625 1.507689375
v -1.9024475 0.192649375 1.507689375
v 1.8399475 0.057350625 -1.007689375
v 0.987413125 0.057350625 -1.853495625
v 1.8399475 0.192649375 -1.007689375
v 0.987413125 0.192649375 -1.853495625
v -1.049913125 0.057350625 -1.853495625
v -1.049913125 0.192649375 -1.853495625
v -1.9024475 0.057350625 -1.007689375
v -1.9024475 0.192649375 -1.007689375
v 0.987413125 0.380149375 -1.853495625
v -1.049913125 0.380149375 -1.853495625
v -1.025995 0.380149375 -1.545753125
v 0.963495 0.380149375 -1.545753125
v 1.8399475 0.380149375 -1.007689375
v 1.795753125 0.380149375 -0.713495
v -1.9024475 0.380149375 -1.007689375
v -1.858253125 0.380149375 -0.713495
v -1.9024475 -0.192649375 -1.007689375
v -1.049913125 -0.192649375 -1.853495625
v -1.025995 -0.192649375 -1.545753125
v -1.858253125 -0.192649375 -0.713495
v 0.987413125 -0.192649375 -1.853495625
v 0.963495 -0.192649375 -1.545753125
v 1.8399475 -0.192649375 -1.007689375
v 1.795753125 -0.192649375 -0.713495
v -1.9024475 0.380149375 1.507689375
v -1.049913125 0.380149375 2.353495625
v -1.025995 0.380149375 2.045753125
v -1.858253125 0.380149375 1.213495
v 0.987413125 0.380149375 2.353495625
v 0.963495 0.380149375 2.045753125
v 1.8399475 0.380149375 1.507689375
v 1.795753125 0.380149375 1.213495
v 1.8399475 -0.192649375 1.507689375
v 0.987413125 -0.192649375 2.353495625
v 0.963495 -0.192649375 2.045753125
v 1.795753125 -0.192649375 1.213495
v -1.049913125 -0.192649375 2.353495625
v -1.025995 -0.192649375 2.045753125
v -1.9024475 -0.192649375 1.507689375
v -1.858253125 -0.192649375 1.213495
vt 0.0562367578125 0.9723607421875
vt 0.0481437109375 0.9880126953125
vt 0.000028671875 0.93236859375
vt 0.016685 0.926619921875
vt 0.082169140625 0.73828125
vt 0.082169140625 0.729825
vt 0.1572265625 0.729825
vt 0.1572265625 0.73828125
vt 0.2161125 0.6404051562499999
vt 0.224205546875 0.6560570703124999
vt 0.1846537890625 0.701797890625
vt 0.167997421875 0.6960492578124999
vt 0.126896484375 0.6657619921875
vt 0.1279296875 0.6702010546875
vt 0.069203515625 0.6702010546875
vt 0.066449609375 0.6652545703125
vt 0.1279296875 0.6702010546875
vt 0.1279296875 0.6786573046875
vt 0.069203515625 0.6786573046875
vt 0.069203515625 0.6702010546875
vt 0.1279296875 0.6786573046875
vt 0.126895859375 0.6830964453125
vt 0.066428359375 0.68359375
vt 0.0692237890625 0.6786573046875
vt 0.016685 0.926619921875
vt 0.000028671875 0.93236859375
vt 0.0039573046875 0.8510892578125
vt 0.0199815625 0.8584175
vt 0.0186390625 0.78125
vt 0.0186390625 0.77279375
vt 0.10001328125 0.77279375
vt 0.10001328125 0.78125
vt 0.167997421875 0.6960492578124999
vt 0.1846537890625 0.701797890625
vt 0.1879503515625 0.7700003125
vt 0.1719260546875 0.77732859375
vt 0.36328125 0.7470703125
vt 0.36328125 0.7529496875
vt 0.29702265625 0.7538052734375
vt 0.296875 0.7479277343749999
vt 0.08984375 0.78515625
vt 0.08984375 0.79296875
vt 0.0234375 0.79296875
vt 0.0234375 0.78515625
vt 0.130746875 0.96484375
vt 0.130820703125 0.97265625
vt 0.062538671875 0.97265625
vt 0.0626125 0.96484375
vt 0.0199815625 0.8584175
vt 0.0039573046875 0.8510892578125
vt 0.0572146484375 0.8003449609375
vt 0.0637606640625 0.81670421875
vt 0.21484375 0.7734375
vt 0.21484375 0.76498125
vt 0.289901171875 0.76498125
vt 0.289901171875 0.7734375
vt 0.1719260546875 0.77732859375
vt 0.1879503515625 0.7700003125
vt 0.231729453125 0.8117136328125
vt 0.2251833984375 0.8280728515625
vt 0.143511328125 0.82490484375
vt 0.140757421875 0.830099765625
vt 0.08203125 0.830099765625
vt 0.083064453125 0.8258728125
vt 0.140757421875 0.830099765625
vt 0.140757421875 0.838556015625
vt 0.08203125 0.838556015625
vt 0.08203125 0.830099765625
vt 0.140757421875 0.838556015625
vt 0.143511953125 0.84375
vt 0.08304953125 0.842798515625
vt 0.08204625 0.838556015625
vt 0.0637607421875 0.8167043359375
vt 0.0572146484375 0.8003449609375
vt 0.1815576171875 0.8003449609375
vt 0.1750115234375 0.8167043359375
vt 0.050835546875 0.9453125
vt 0.050835546875 0.93685625
vt 0.178168359375 0.93685625
vt 0.178168359375 0.9453125
vt 0.225183359375 0.8280730078125
vt 0.231729453125 0.8117136328125
vt 0.342980234375 0.8117136328125
vt 0.349526328125 0.8280730078125
vt 0.111289453125 0.6901109375000001
vt 0.10959765625 0.69434296875
vt 0.00173046875 0.69434296875
vt 0.000038671875 0.6901109375000001
vt 0.10959765625 0.69434296875
vt 0.10959765625 0.7027992187500001
vt 0.00173046875 0.7027992187500001
vt 0.00173046875 0.69434296875
vt 0.10959765625 0.7027992187500001
vt 0.111289453125 0.70703125
vt 0.000038671875 0.70703125
vt 0.00173046875 0.7027992187500001
vt 0.1750115234375 0.8167043359375
vt 0.1815576171875 0.8003449609375
vt 0.23481390625 0.8510903515625
vt 0.2187894921875 0.85841828125
vt 0.191544140625 0.73046875
vt 0.191544140625 0.7220125
vt 0.2666015625 0.7220125
vt 0.2666015625 0.73046875
vt 0.349526328125 0.8280730078125
vt 0.342980234375 0.8117136328125
vt 0.386758203125 0.7699996875
vt 0.4027826171875 0.7773276171875
vt 0.380802734375 0.868671484375
vt 0.3818359375 0.87311015625
vt 0.323109765625 0.87311015625
vt 0.320355859375 0.8681640625
vt 0.3818359375 0.87311015625
vt 0.3818359375 0.88156640625
vt 0.323109765625 0.88156640625
vt 0.323109765625 0.87311015625
vt 0.3818359375 0.88156640625
vt 0.380802109375 0.88600515625
vt 0.3203346484375 0.8865028515625
vt 0.3231300390625 0.88156640625
vt 0.2187894921875 0.85841828125
vt 0.23481390625 0.8510903515625
vt 0.238740859375 0.932369765625
vt 0.2220846484375 0.9266207421875
vt 0.0772328125 0.859375
vt 0.0772328125 0.85091875
vt 0.15860703125 0.85091875
vt 0.15860703125 0.859375
vt 0.4027826171875 0.7773276171875
vt 0.386758203125 0.7699996875
vt 0.390053359375 0.7017972265625
vt 0.406709609375 0.6960482031249999
vt 0.30078125 0.8330078125
vt 0.30078125 0.8388871875
vt 0.23452265625 0.8397427734375
vt 0.234375 0.8338652343749999
vt 0.08984375 0.7578125
vt 0.08984375 0.765625
vt 0.0234375 0.765625
vt 0.0234375 0.7578125
vt 0.150278125 0.86328125
vt 0.150351953125 0.87109375
vt 0.082069921875 0.87109375
vt 0.08214375 0.86328125
vt 0.2220846484375 0.9266207421875
vt 0.238740859375 0.932369765625
vt 0.1906246484375 0.988012890625
vt 0.182531953125 0.97236078125
vt 0 0.73828125
vt 0 0.729825
vt 0.075057421875 0.729825
vt 0.075057421875 0.73828125
vt 0.406709609375 0.6960482031249999
vt 0.390053359375 0.7017972265625
vt 0.3505006640625 0.6560571875000001
vt 0.3585933984375 0.640405078125
vt 0.06148046875 0.66455078125
vt 0.058726171875 0.6697453125
vt 0 0.6697453125
vt 0.00103359375 0.6655187499999999
vt 0.058726171875 0.6697453125
vt 0.058726171875 0.6782015625
vt 0 0.6782015625
vt 0 0.6697453125
vt 0.058726171875 0.6782015625
vt 0.061480703125 0.6833959375
vt 0.001018671875 0.682444453125
vt 0.000015 0.6782015625
vt 0.182531953125 0.97236078125
vt 0.1906246484375 0.988012890625
vt 0.066860859375 1
vt 0.0717993359375 0.9830857421875
vt 0.023491796875 0.90234375
vt 0.023491796875 0.8938875
vt 0.150824609375 0.8938875
vt 0.150824609375 0.90234375
vt 0.3585933984375 0.640405078125
vt 0.3505006640625 0.6560571875000001
vt 0.2397680859375 0.6453322265625
vt 0.2348295703125 0.62841796875
vt 0.326133203125 0.68229921875
vt 0.32444140625 0.686530859375
vt 0.21657421875 0.686530859375
vt 0.214882421875 0.68229921875
vt 0.32444140625 0.686530859375
vt 0.32444140625 0.694987109375
vt 0.21657421875 0.694987109375
vt 0.21657421875 0.686530859375
vt 0.32444140625 0.694987109375
vt 0.326133203125 0.69921875
vt 0.214882421875 0.69921875
vt 0.21657421875 0.694987109375
vt 0.4229193359375 0.9648046875
vt 0.2955865234375 0.9648046875
vt 0.2970814453125 0.94557109375
vt 0.4214244140625 0.94557109375
vt 0.3229302734375 0.835
vt 0.4502630859375 0.835
vt 0.4487681640625 0.85423359375
vt 0.3244251953125 0.85423359375
vt 0.4762029296875 0.911941796875
vt 0.4229193359375 0.9648046875
vt 0.4214244140625 0.94557109375
vt 0.4734408203125 0.8935546875
vt 0.000045703125 0.78125
vt 0.000045703125 0.77279375
vt 0.0186390625 0.77279375
vt 0.0186390625 0.78125
vt 0.4502630859375 0.835
vt 0.5035466796875 0.887862890625
vt 0.5007845703125 0.90625
vt 0.4487681640625 0.85423359375
vt 0.177200390625 0.85091875
vt 0.177200390625 0.859375
vt 0.15860703125 0.859375
vt 0.15860703125 0.85091875
vt 0.2955865234375 0.9648046875
vt 0.2423029296875 0.911941796875
vt 0.2450650390625 0.8935546875
vt 0.2970814453125 0.94557109375
vt 0.2696466796875 0.887862890625
vt 0.3229302734375 0.835
vt 0.3244251953125 0.85423359375
vt 0.2724087890625 0.90625
vt 0.118606640625 0.77279375
vt 0.118606640625 0.78125
vt 0.10001328125 0.78125
vt 0.10001328125 0.77279375
vt 0.3487005859375 0.5966796875
vt 0.4019841796875 0.6495425781249999
vt 0.3992220703125 0.6679296875
vt 0.3472056640625 0.61591328125
vt 0.5894841796875 0.5877621093750001
vt 0.5362005859375 0.640625
vt 0.5347056640625 0.62139140625
vt 0.5867220703125 0.569375
vt 0.2213677734375 0.5966796875
vt 0.3487005859375 0.5966796875
vt 0.3472056640625 0.61591328125
vt 0.2228626953125 0.61591328125
vt 0.5362005859375 0.640625
vt 0.4088677734375 0.640625
vt 0.4103626953125 0.62139140625
vt 0.5347056640625 0.62139140625
vt 0.1680841796875 0.6495425781249999
vt 0.2213677734375 0.5966796875
vt 0.2228626953125 0.61591328125
vt 0.1708462890625 0.6679296875
vt 0.058639453125 0.859375
vt 0.058639453125 0.85091875
vt 0.0772328125 0.85091875
vt 0.0772328125 0.859375
vt 0.4088677734375 0.640625
vt 0.3555841796875 0.5877621093750001
vt 0.3583462890625 0.569375
vt 0.4103626953125 0.62139140625
vt 0.178168359375 0.95703125
vt 0.050835546875 0.95703125
vt 0.050835546875 0.9453125
vt 0.178168359375 0.9453125
vt 0.33984375 0.98046875
vt 0.21484375 0.98046875
vt 0.21484375 0.96875
vt 0.33984375 0.96875
vt 0.289901171875 0.78515625
vt 0.21484375 0.78515625
vt 0.21484375 0.7734375
vt 0.289901171875 0.7734375
vt 0.37109375 0.9375
vt 0.296875 0.9375
vt 0.296875 0.92578125
vt 0.37109375 0.92578125
vt 0.118606640625 0.79296875
vt 0.10001328125 0.79296875
vt 0.10001328125 0.78125
vt 0.118606640625 0.78125
vt 0.2666015625 0.7421875
vt 0.191544140625 0.7421875
vt 0.191544140625 0.73046875
vt 0.2666015625 0.73046875
vt 0.0772328125 0.87109375
vt 0.058639453125 0.87109375
vt 0.058639453125 0.859375
vt 0.0772328125 0.859375
vt 0.40625 1
vt 0.33203125 1
vt 0.33203125 0.98828125
vt 0.40625 0.98828125
vt 0.191544140625 0.7063875
vt 0.2666015625 0.7063875
vt 0.2666015625 0.7220125
vt 0.191544140625 0.7220125
vt 0.296875 0.7578125
vt 0.37109375 0.7578125
vt 0.37109375 0.7734375
vt 0.296875 0.7734375
vt 0.058639453125 0.83529375
vt 0.0772328125 0.83529375
vt 0.0772328125 0.85091875
vt 0.058639453125 0.85091875
vt 0.050835546875 0.92123125
vt 0.178168359375 0.92123125
vt 0.178168359375 0.93685625
vt 0.050835546875 0.93685625
vt 0.203125 0.984375
vt 0.328125 0.984375
vt 0.328125 1
vt 0.203125 1
vt 0.21484375 0.74935625
vt 0.289901171875 0.74935625
vt 0.289901171875 0.76498125
vt 0.21484375 0.76498125
vt 0.10001328125 0.75716875
vt 0.118606640625 0.75716875
vt 0.118606640625 0.77279375
vt 0.10001328125 0.77279375
vt 0.234375 0.7890625
vt 0.30859375 0.7890625
vt 0.30859375 0.8046875
vt 0.234375 0.8046875
vt 0.075057421875 0.75
vt 0 0.75
vt 0 0.73828125
vt 0.075057421875 0.73828125
vt 0.30078125 0.67578125
vt 0.2265625 0.67578125
vt 0.2265625 0.6640625
vt 0.30078125 0.6640625
vt 0.177200390625 0.87109375
vt 0.15860703125 0.87109375
vt 0.15860703125 0.859375
vt 0.177200390625 0.859375
vt 0.150824609375 0.9140625
vt 0.023491796875 0.9140625
vt 0.023491796875 0.90234375
vt 0.150824609375 0.90234375
vt 0.421875 0.90234375
vt 0.296875 0.90234375
vt 0.296875 0.890625
vt 0.421875 0.890625
vt 0.1572265625 0.75
vt 0.082169140625 0.75
vt 0.082169140625 0.73828125
vt 0.1572265625 0.73828125
vt 0.0186390625 0.79296875
vt 0.000045703125 0.79296875
vt 0.000045703125 0.78125
vt 0.0186390625 0.78125
vt 0.07421875 0.66015625
vt 0 0.66015625
vt 0 0.6484375
vt 0.07421875 0.6484375
vt 0.082169140625 0.7142
vt 0.1572265625 0.7142
vt 0.1572265625 0.729825
vt 0.082169140625 0.729825
vt 0.2734375 0.7265625
vt 0.34765625 0.7265625
vt 0.34765625 0.7421875
vt 0.2734375 0.7421875
vt 0.000045703125 0.75716875
vt 0.0186390625 0.75716875
vt 0.0186390625 0.77279375
vt 0.000045703125 0.77279375
vt 0.023491796875 0.8782625
vt 0.150824609375 0.8782625
vt 0.150824609375 0.8938875
vt 0.023491796875 0.8938875
vt 0.28125 0.90625
vt 0.40625 0.90625
vt 0.40625 0.921875
vt 0.28125 0.921875
vt 0 0.7142
vt 0.075057421875 0.7142
vt 0.075057421875 0.729825
vt 0 0.729825
vt 0.15860703125 0.83529375
vt 0.177200390625 0.83529375
vt 0.177200390625 0.85091875
vt 0.15860703125 0.85091875
vt 0.2734375 0.70703125
vt 0.34765625 0.70703125
vt 0.34765625 0.72265625
vt 0.2734375 0.72265625
vn 0.18275225476866352 0.9660244441803422 0.18275225476866355
vn 0.704299989115024 0 0.7099024759307275
vn 0.18275225476866355 -0.9660244441803423 0.18275225476866352
vn -0.6918283709112487 -0.3045043308228372 -0.6547141496198351
vn -0.7263206474472725 0 -0.6873560337203529
vn -0.6748556380875953 0.2985627831508297 -0.6748556380875953
vn 0.2584503820593502 0.9660245338568665 0
vn 1 0 0
vn 0.2584503820593502 -0.9660245338568665 0
vn -0.7191876759009499 -0.6948158654148525 0
vn -1 0 0
vn -0.7191876759009499 0.6948158654148524 0
vn 0.18275225476866355 0.9660244441803422 -0.18275225476866352
vn 0.7042999891150241 0 -0.7099024759307274
vn 0.18275225476866352 -0.9660244441803423 -0.18275225476866355
vn -0.5911854577352271 -0.5809411709996702 0.5594703838452239
vn -0.7263206474472725 0 0.6873560337203529
vn -0.580504269911535 0.5709900044912796 0.580504269911535
vn 0 0.9660245338568665 -0.25845038205935017
vn 0 0 -1
vn 0 -0.9660245338568664 -0.25845038205935017
vn 0 -0.04219301199715661 0.9991094783549037
vn 0 0 1
vn 0 0.04219301199715661 0.9991094783549037
vn -0.18275225476866352 0.9660244441803422 -0.18275225476866355
vn -0.7042999891150241 0 -0.7099024759307274
vn -0.18275225476866355 -0.9660244441803423 -0.18275225476866352
vn 0.6918283709112488 -0.3045043308228367 0.6547141496198352
vn 0.7263206474472725 0 0.6873560337203529
vn 0.6748556380875953 0.2985627831508291 0.6748556380875954
vn -0.2584503820593502 0.9660245338568665 0
vn -1 0 0
vn -0.2584503820593502 -0.9660245338568665 0
vn 0.7191876759009499 -0.6948158654148525 0
vn 1 0 0
vn 0.7191876759009499 0.6948158654148524 0
vn -0.18275225476866355 0.9660244441803422 0.18275225476866352
vn -0.704299989115024 0 0.7099024759307275
vn -0.18275225476866352 -0.9660244441803423 0.18275225476866355
vn 0.5911854577352271 -0.5809411709996702 -0.5594703838452239
vn 0.7263206474472725 0 -0.6873560337203529
vn 0.580504269911535 0.5709900044912796 -0.580504269911535
vn 0 0.9660245338568665 0.25845038205935017
vn 0 0 1
vn 0 -0.9660245338568664 0.25845038205935017
vn 0 -0.04219301199715661 -0.9991094783549037
vn 0 0 -1
vn 0 0.04219301199715661 -0.9991094783549037
vn 0 -1 0
vn 0 1 0
vn 0 -1 0
vn 0.9889041693148211 0 -0.14855485152550146
vn 0 1 0
vn -0.9889041693148211 0 -0.14855485152550146
vn 0 -1 0
vn 0 1 0
vn 0.9889041693148211 0 0.14855485152550146
vn 0 -1 0
vn 0 1 0
vn 0 -1 0
vn 0 1 0
vn 0 -1 0
vn -0.9889041693148211 0 0.14855485152550146
vn 0 1 0
vn 0 0 -1
vn 0 0 1
vn 0.7042999891150241 0 -0.7099024759307274
vn -0.7071067811865476 0 0.7071067811865476
vn 0.9889041693148212 0 0.1485548515255015
vn -0.7042999891150241 0 -0.7099024759307274
vn -0.9889041693148212 0 0.1485548515255015
vn 0.7071067811865476 0 0.7071067811865476
vn -0.704299989115024 0 -0.7099024759307274
vn 0.7071067811865476 0 0.7071067811865476
vn -0.9889041693148211 0 0.14855485152550146
vn 0 0 -1
vn 0 0 1
vn 0.704299989115024 0 -0.7099024759307274
vn 0.9889041693148211 0 0.14855485152550146
vn -0.7071067811865476 0 0.7071067811865476
vn -0.704299989115024 0 0.7099024759307274
vn 0.7071067811865476 0 -0.7071067811865476
vn -0.9889041693148212 0 -0.1485548515255015
vn 0 0 1
vn 0 0 -1
vn 0.704299989115024 0 0.7099024759307274
vn 0.9889041693148212 0 -0.1485548515255015
vn -0.7071067811865476 0 -0.7071067811865476
vn 0.704299989115024 0 0.7099024759307275
vn -0.7071067811865476 0 -0.7071067811865476
vn 0.9889041693148211 0 -0.14855485152550146
vn 0 0 1
vn 0 0 -1
vn -0.704299989115024 0 0.7099024759307275
vn -0.9889041693148211 0 -0.14855485152550146
vn 0.7071067811865476 0 -0.7071067811865476
usemtl m_340ebd59-3113-228b-27fa-7d823a39fff6
f 1/1/1 2/2/1 8/3/1 7/4/1
f 52/5/2 50/6/2 53/7/2 54/8/2
f 3/9/3 4/10/3 10/11/3 9/12/3
f 4/13/4 5/14/4 11/15/4 10/16/4
f 5/17/5 6/18/5 12/19/5 11/20/5
f 6/21/6 1/22/6 7/23/6 12/24/6
f 7/25/7 8/26/7 14/27/7 13/28/7
f 8/29/8 9/30/8 15/31/8 14/32/8
f 9/33/9 10/34/9 16/35/9 15/36/9
f 10/37/10 11/38/10 17/39/10 16/40/10
f 11/41/11 12/42/11 18/43/11 17/44/11
f 12/45/12 7/46/12 13/47/12 18/48/12
f 13/49/13 14/50/13 20/51/13 19/52/13
f 59/53/14 57/54/14 58/55/14 60/56/14
f 15/57/15 16/58/15 22/59/15 21/60/15
f 16/61/16 17/62/16 23/63/16 22/64/16
f 17/65/17 18/66/17 24/67/17 23/68/17
f 18/69/18 13/70/18 19/71/18 24/72/18
f 19/73/19 20/74/19 26/75/19 25/76/19
f 60/77/20 58/78/20 61/79/20 62/80/20
f 21/81/21 22/82/21 28/83/21 27/84/21
f 22/85/22 23/86/22 29/87/22 28/88/22
f 23/89/23 24/90/23 30/91/23 29/92/23
f 24/93/24 19/94/24 25/95/24 30/96/24
f 25/97/25 26/98/25 32/99/25 31/100/25
f 62/101/26 61/102/26 63/103/26 64/104/26
f 27/105/27 28/106/27 34/107/27 33/108/27
f 28/109/28 29/110/28 35/111/28 34/112/28
f 29/113/29 30/114/29 36/115/29 35/116/29
f 30/117/30 25/118/30 31/119/30 36/120/30
f 31/121/31 32/122/31 38/123/31 37/124/31
f 32/125/32 33/126/32 39/127/32 38/128/32
f 33/129/33 34/130/33 40/131/33 39/132/33
f 34/133/34 35/134/34 41/135/34 40/136/34
f 35/137/35 36/138/35 42/139/35 41/140/35
f 36/141/36 31/142/36 37/143/36 42/144/36
f 37/145/37 38/146/37 44/147/37 43/148/37
f 56/149/38 55/150/38 49/151/38 51/152/38
f 39/153/39 40/154/39 46/155/39 45/156/39
f 40/157/40 41/158/40 47/159/40 46/160/40
f 41/161/41 42/162/41 48/163/41 47/164/41
f 42/165/42 37/166/42 43/167/42 48/168/42
f 43/169/43 44/170/43 2/171/43 1/172/43
f 51/173/44 49/174/44 50/175/44 52/176/44
f 45/177/45 46/178/45 4/179/45 3/180/45
f 46/181/46 47/182/46 5/183/46 4/184/46
f 47/185/47 48/186/47 6/187/47 5/188/47
f 48/189/48 43/190/48 1/191/48 6/192/48
f 90/193/49 93/194/49 94/195/49 91/196/49
f 82/197/50 85/198/50 86/199/50 83/200/50
f 89/201/51 90/202/51 91/203/51 92/204/51
f 54/205/52 53/206/52 9/207/52 8/208/52
f 85/209/53 87/210/53 88/211/53 86/212/53
f 55/213/54 56/214/54 38/215/54 39/216/54
f 93/217/55 95/218/55 96/219/55 94/220/55
f 81/221/56 82/222/56 83/223/56 84/224/56
f 57/225/57 59/226/57 14/227/57 15/228/57
f 77/229/58 79/230/58 80/231/58 78/232/58
f 69/233/59 65/234/59 68/235/59 70/236/59
f 74/237/60 77/238/60 78/239/60 75/240/60
f 65/241/61 66/242/61 67/243/61 68/244/61
f 73/245/62 74/246/62 75/247/62 76/248/62
f 64/249/63 63/250/63 33/251/63 32/252/63
f 66/253/64 71/254/64 72/255/64 67/256/64
f 66/257/65 65/258/65 60/259/65 62/260/65
f 68/261/66 67/262/66 26/263/66 20/264/66
f 65/265/67 69/266/67 59/267/67 60/268/67
f 70/269/68 68/270/68 20/271/68 14/272/68
f 69/273/69 70/274/69 14/275/69 59/276/69
f 71/277/70 66/278/70 62/279/70 64/280/70
f 72/281/71 71/282/71 64/283/71 32/284/71
f 67/285/72 72/286/72 32/287/72 26/288/72
f 74/289/73 73/290/73 63/291/73 61/292/73
f 76/293/74 75/294/74 27/295/74 33/296/74
f 73/297/75 76/298/75 33/299/75 63/300/75
f 77/301/76 74/302/76 61/303/76 58/304/76
f 75/305/77 78/306/77 21/307/77 27/308/77
f 79/309/78 77/310/78 58/311/78 57/312/78
f 80/313/79 79/314/79 57/315/79 15/316/79
f 78/317/80 80/318/80 15/319/80 21/320/80
f 82/321/81 81/322/81 56/323/81 51/324/81
f 84/325/82 83/326/82 44/327/82 38/328/82
f 81/329/83 84/330/83 38/331/83 56/332/83
f 85/333/84 82/334/84 51/335/84 52/336/84
f 83/337/85 86/338/85 2/339/85 44/340/85
f 87/341/86 85/342/86 52/343/86 54/344/86
f 88/345/87 87/346/87 54/347/87 8/348/87
f 86/349/88 88/350/88 8/351/88 2/352/88
f 90/353/89 89/354/89 53/355/89 50/356/89
f 92/357/90 91/358/90 3/359/90 9/360/90
f 89/361/91 92/362/91 9/363/91 53/364/91
f 93/365/92 90/366/92 50/367/92 49/368/92
f 91/369/93 94/370/93 45/371/93 3/372/93
f 95/373/94 93/374/94 49/375/94 55/376/94
f 96/377/95 95/378/95 55/379/95 39/380/95
f 94/381/96 96/382/96 39/383/96 45/384/96