# Blender 4.4.0
# www.blender.org
mtllib CurveH.mtl
o HCurve
v 3.947275 -0.000014 5.235105
v 24.912188 -0.000001 26.200016
v 20.822136 -0.000003 25.797184
v 16.889261 -0.000006 24.604158
v 13.264708 -0.000008 22.666798
v 10.087751 -0.000010 20.059530
v 7.480501 -0.000011 16.882584
v 5.543135 -0.000013 13.258025
v 4.350109 -0.000014 9.325154
v -3.791336 -0.000019 5.235106
v 24.912188 -0.000000 33.938625
v 19.312407 -0.000004 33.387100
v 13.927824 -0.000007 31.753704
v 8.965366 -0.000010 29.101219
v 4.615728 -0.000012 25.531555
v 1.046083 -0.000015 21.181927
v -1.606409 -0.000017 16.219463
v -3.239803 -0.000018 10.834882
v 29.942152 0.000002 26.200014
v 29.942152 0.000003 33.938625
v 3.947273 -0.000015 -0.180519
v -3.791336 -0.000019 -0.180518
v 20.822136 -0.836716 25.797184
v 24.912188 -0.836714 26.200016
v 16.889261 -0.836719 24.604158
v 13.264708 -0.836721 22.666798
v 10.087751 -0.836723 20.059530
v 7.480501 -0.836725 16.882584
v 5.543135 -0.836726 13.258025
v 4.350109 -0.836727 9.325154
v 3.947275 -0.836727 5.235105
v 19.312407 -0.836717 33.387100
v 24.912189 -0.836713 33.938625
v 13.927824 -0.836720 31.753704
v 8.965366 -0.836723 29.101219
v 4.615728 -0.836726 25.531555
v 1.046083 -0.836728 21.181927
v -1.606409 -0.836730 16.219463
v -3.239803 -0.836731 10.834882
v -3.791336 -0.836732 5.235106
v 29.942152 -0.836711 26.200014
v 29.942154 -0.836711 33.938625
v 3.947273 -0.836728 -0.180519
v -3.791336 -0.836732 -0.180518
v 7.511639 0.056335 24.243988
v 9.473488 0.056335 22.282139
v 5.549789 0.056335 22.282139
v 7.511637 0.056335 20.320290
v 4.503824 0.056335 23.328100
v 8.557600 0.056335 19.274326
v 3.245176 0.056335 18.808170
v 4.037668 0.056335 18.015675
vn -0.4714 -0.0000 0.8819
vn 0.4714 -0.0000 -0.8819
vn -0.2903 -0.0000 0.9569
vn -0.0000 -0.0000 -1.0000
vn 0.2903 -0.0000 -0.9569
vn -0.0980 -0.0000 0.9952
vn -0.9952 -0.0000 0.0980
vn 0.0980 -0.0000 -0.9952
vn -1.0000 -0.0000 -0.0000
vn -0.0000 1.0000 -0.0000
vn 0.9952 -0.0000 -0.0980
vn -0.0000 -1.0000 -0.0000
vn 1.0000 -0.0000 -0.0000
vn 0.6344 -0.0000 -0.7730
vn -0.6344 -0.0000 0.7730
vn -0.0000 -0.0000 1.0000
vn 0.7730 -0.0000 -0.6344
vn -0.7730 -0.0000 0.6344
vn 0.8819 -0.0000 -0.4714
vn -0.8819 -0.0000 0.4714
vn 0.9569 -0.0000 -0.2903
vn -0.9569 -0.0000 0.2903
vt 0.000000 0.000000
vt 1.000000 0.000000
vt 1.000000 1.000000
vt 0.000000 1.000000
s 0
usemtl Material
f 13/1/1 14/1/1 35/1/1 34/1/1
f 5/1/2 4/1/2 25/1/2 26/1/2
f 12/1/3 13/1/3 34/1/3 32/1/3
f 22/1/4 21/1/4 43/1/4 44/1/4
f 4/1/5 3/1/5 23/1/5 25/1/5
f 11/1/6 12/1/6 32/1/6 33/1/6
f 18/1/7 10/1/7 40/1/7 39/1/7
f 3/1/8 2/1/8 24/1/8 23/1/8
f 10/1/9 22/1/9 44/1/9 40/1/9
f 5/1/10 6/1/10 15/1/10 14/1/10
f 6/1/10 7/1/10 16/1/10 15/1/10
f 7/1/10 8/1/10 17/1/10 16/1/10
f 8/1/10 9/1/10 18/1/10 17/1/10
f 9/1/10 1/1/10 10/1/10 18/1/10
f 21/1/10 22/1/10 10/1/10 1/1/10
f 1/1/11 9/1/11 30/1/11 31/1/11
f 29/1/12 28/1/12 37/1/12 38/1/12
f 27/1/12 26/1/12 35/1/12 36/1/12
f 25/1/12 23/1/12 32/1/12 34/1/12
f 30/1/12 29/1/12 38/1/12 39/1/12
f 28/1/12 27/1/12 36/1/12 37/1/12
f 26/1/12 25/1/12 34/1/12 35/1/12
f 23/1/12 24/1/12 33/1/12 32/1/12
f 31/1/12 30/1/12 39/1/12 40/1/12
f 33/1/12 24/1/12 41/1/12 42/1/12
f 40/1/12 44/1/12 43/1/12 31/1/12
f 19/1/13 20/1/13 42/1/13 41/1/13
f 6/1/14 5/1/14 26/1/14 27/1/14
f 14/1/15 15/1/15 36/1/15 35/1/15
f 20/1/16 11/1/16 33/1/16 42/1/16
f 7/1/17 6/1/17 27/1/17 28/1/17
f 15/1/18 16/1/18 37/1/18 36/1/18
f 2/1/4 19/1/4 41/1/4 24/1/4
f 8/1/19 7/1/19 28/1/19 29/1/19
f 16/1/20 17/1/20 38/1/20 37/1/20
f 9/1/21 8/1/21 29/1/21 30/1/21
f 21/1/13 1/1/13 31/1/13 43/1/13
f 17/1/22 18/1/22 39/1/22 38/1/22
f 4/1/10 5/1/10 14/1/10 13/1/10
f 3/1/10 4/1/10 13/1/10 12/1/10
f 2/1/10 3/1/10 12/1/10 11/1/10
f 20/1/10 19/1/10 2/1/10 11/1/10
usemtl Arrow
f 45/1/10 46/2/10 48/3/10 47/4/10
f 50/1/12 49/1/12 51/1/12 52/1/12
