# Blender 4.4.0
# www.blender.org
mtllib CurveV.mtl
o VCurve
v -3.678783 30.061277 -29.858852
v -3.678782 24.196802 -29.281248
v 3.939533 24.196806 -29.281248
v 3.939532 30.061285 -29.858852
v -3.678782 18.557695 -27.730009
v 3.939533 18.557697 -27.730009
v -3.678782 13.360668 -24.952135
v 3.939533 13.360668 -24.952135
v -3.678781 8.805429 -21.213751
v 3.939533 8.805435 -21.213751
v -3.678781 5.067043 -16.658518
v 3.939533 5.067047 -16.658518
v -3.678781 2.289173 -11.461486
v 3.939533 2.289173 -11.461486
v -3.678781 0.578568 -5.822378
v 3.939533 0.578573 -5.822378
v -3.678781 0.000965 0.042098
v 3.939533 0.000971 0.042098
v -3.788502 30.063105 -30.913498
v -3.788501 24.023724 -30.318666
v 4.057028 24.023727 -30.318666
v 4.057027 30.063112 -30.913498
v -3.788501 18.216431 -28.557049
v 4.057028 18.216434 -28.557049
v -3.788501 12.864405 -25.696325
v 4.057029 12.864405 -25.696325
v -3.788500 8.173307 -21.846445
v 4.057028 8.173313 -21.846445
v -3.788500 4.323425 -17.155354
v 4.057028 4.323429 -17.155354
v -3.788500 1.462706 -11.803322
v 4.057029 1.462706 -11.803322
v -3.788500 -0.298920 -5.996028
v 4.057029 -0.298912 -5.996028
v -3.788500 -0.893747 0.043353
v 4.057029 -0.893742 0.043353
v -1.226443 8.499945 -20.046028
v 1.548029 8.499947 -20.046028
v -1.226447 10.461794 -22.007877
v 1.548028 10.461794 -22.007879
v -2.705658 10.461796 -22.007879
v 3.027242 10.461796 -22.007879
v -0.399584 13.351086 -24.897167
v 0.721170 13.351086 -24.897171
vn -0.0000 0.4714 0.8819
vn 0.9914 0.1154 0.0617
vn -0.0000 1.0000 0.0017
vn -0.0000 0.0014 1.0000
vn -0.9925 0.1079 0.0577
vn 0.9938 0.0109 0.1107
vn 0.9914 0.1302 0.0128
vn 0.9914 0.0617 0.1154
vn -0.9946 0.0102 0.1035
vn -0.0000 0.2652 0.9642
vn -0.0000 0.0980 0.9952
vn -0.0000 -0.0980 -0.9952
vn -0.0000 -0.2903 -0.9569
vn -0.0000 -0.4714 -0.8819
vn -0.0000 -0.6344 -0.7730
vn -0.0000 -0.7730 -0.6344
vn -0.0000 -0.8819 -0.4714
vn -0.0000 -0.9569 -0.2903
vn -0.0000 -0.9952 -0.0980
vn -0.9925 0.0776 0.0946
vn 0.9914 0.0830 0.1012
vn -0.9936 0.0313 0.1083
vn -0.9925 0.1171 0.0355
vn 0.9927 0.0335 0.1159
vn 0.9914 0.1252 0.0380
vn -0.9925 0.0946 0.0776
vn 0.9914 0.1012 0.0830
vn -0.9925 0.0577 0.1079
vn -0.9925 0.1217 0.0120
vn -0.0000 0.6344 0.7730
vn -0.0000 0.7730 0.6344
vn -0.0000 0.8819 0.4714
vn -0.0000 0.9569 0.2903
vn -0.0000 0.9952 0.0980
vn -0.0000 0.7071 0.7071
vn -0.0000 -0.7071 -0.7071
vt 0.000000 0.000000
vt 1.000000 1.000000
vt 0.968750 1.000000
vt 0.781250 1.000000
vt 0.750000 1.000000
vt 0.968750 0.500000
vt 1.000000 0.500000
vt 0.937500 1.000000
vt 0.937500 0.500000
vt 0.906250 1.000000
vt 0.906250 0.500000
vt 0.875000 1.000000
vt 0.875000 0.500000
vt 0.843750 1.000000
vt 0.843750 0.500000
vt 0.812500 1.000000
vt 0.812500 0.500000
vt 0.781250 0.500000
vt 0.750000 0.500000
vt 1.000000 0.000000
vt 0.000000 1.000000
s 0
usemtl Material
f 5/1/1 7/1/1 8/1/1 6/1/1
f 12/1/2 14/1/2 32/1/2 30/1/2
f 1/1/3 4/1/3 22/1/3 19/1/3
f 18/1/4 17/1/4 35/1/4 36/1/4
f 13/1/5 11/1/5 29/1/5 31/1/5
f 4/2/6 3/3/6 21/3/6 22/2/6
f 16/4/7 18/5/7 36/5/7 34/4/7
f 6/1/8 8/1/8 26/1/8 24/1/8
f 2/6/9 1/7/9 19/7/9 20/6/9
f 2/6/10 5/1/10 6/1/10 3/3/10
f 1/1/11 2/6/11 3/3/11 4/1/11
f 19/7/12 22/2/12 21/3/12 20/6/12
f 20/6/13 21/3/13 24/8/13 23/9/13
f 23/9/14 24/8/14 26/10/14 25/11/14
f 25/11/15 26/10/15 28/12/15 27/13/15
f 27/13/16 28/12/16 30/14/16 29/15/16
f 29/15/17 30/14/17 32/16/17 31/17/17
f 31/17/18 32/16/18 34/4/18 33/18/18
f 33/18/19 34/4/19 36/5/19 35/19/19
f 9/1/20 7/1/20 25/1/20 27/1/20
f 8/1/21 10/1/21 28/1/21 26/1/21
f 5/1/22 2/1/22 20/1/22 23/1/22
f 15/1/23 13/1/23 31/1/23 33/1/23
f 3/1/24 6/1/24 24/1/24 21/1/24
f 14/1/25 16/1/25 34/1/25 32/1/25
f 11/1/26 9/1/26 27/1/26 29/1/26
f 10/1/27 12/1/27 30/1/27 28/1/27
f 7/1/28 5/1/28 23/1/28 25/1/28
f 17/19/29 15/18/29 33/18/29 35/19/29
f 7/1/30 9/1/30 10/1/30 8/1/30
f 12/1/31 10/1/31 9/1/31 11/1/31
f 14/1/32 12/1/32 11/1/32 13/1/32
f 16/1/33 14/1/33 13/1/33 15/1/33
f 15/18/34 17/19/34 18/1/34 16/4/34
usemtl Arrow
f 37/1/35 38/20/35 40/2/35 39/21/35
f 42/1/36 41/1/36 43/1/36 44/1/36
