# Blender 4.4.0
# www.blender.org
mtllib Curves.mtl
o VCurve
v -3.678783 30.061277 -29.858852
v -3.678782 24.196802 -29.281248
v 3.939533 24.196806 -29.281248
v 3.939532 30.061285 -29.858852
v -3.678782 18.557695 -27.730009
v 3.939533 18.557697 -27.730009
v -3.678782 13.360668 -24.952135
v 3.939533 13.360668 -24.952135
v -3.678781 8.805429 -21.213751
v 3.939533 8.805435 -21.213751
v -3.678781 5.067043 -16.658518
v 3.939533 5.067047 -16.658518
v -3.678781 2.289173 -11.461486
v 3.939533 2.289173 -11.461486
v -3.678781 0.578568 -5.822378
v 3.939533 0.578573 -5.822378
v -3.678781 0.000965 0.042098
v 3.939533 0.000971 0.042098
v -3.788502 30.063105 -30.913498
v -3.788501 24.023724 -30.318666
v 4.057028 24.023727 -30.318666
v 4.057027 30.063112 -30.913498
v -3.788501 18.216431 -28.557049
v 4.057028 18.216434 -28.557049
v -3.788501 12.864405 -25.696325
v 4.057029 12.864405 -25.696325
v -3.788500 8.173307 -21.846445
v 4.057028 8.173313 -21.846445
v -3.788500 4.323425 -17.155354
v 4.057028 4.323429 -17.155354
v -3.788500 1.462706 -11.803322
v 4.057029 1.462706 -11.803322
v -3.788500 -0.298920 -5.996028
v 4.057029 -0.298912 -5.996028
v -3.788500 -0.893747 0.043353
v 4.057029 -0.893742 0.043353
vn -0.0000 0.4714 0.8819
vn 0.9914 0.1154 0.0617
vn -0.0000 1.0000 0.0017
vn -0.0000 0.0014 1.0000
vn -0.9925 0.1079 0.0577
vn 0.9938 0.0109 0.1107
vn 0.9914 0.1302 0.0128
vn 0.9914 0.0617 0.1154
vn -0.9946 0.0102 0.1035
vn -0.0000 0.2652 0.9642
vn -0.0000 0.0980 0.9952
vn -0.0000 -0.0980 -0.9952
vn -0.0000 -0.2903 -0.9569
vn -0.0000 -0.4714 -0.8819
vn -0.0000 -0.6344 -0.7730
vn -0.0000 -0.7730 -0.6344
vn -0.0000 -0.8819 -0.4714
vn -0.0000 -0.9569 -0.2903
vn -0.0000 -0.9952 -0.0980
vn -0.9925 0.0776 0.0946
vn 0.9914 0.0830 0.1012
vn -0.9936 0.0313 0.1083
vn -0.9925 0.1171 0.0355
vn 0.9927 0.0335 0.1159
vn 0.9914 0.1252 0.0380
vn -0.9925 0.0946 0.0776
vn 0.9914 0.1012 0.0830
vn -0.9925 0.0577 0.1079
vn -0.9925 0.1217 0.0120
vn -0.0000 0.6344 0.7730
vn -0.0000 0.7730 0.6344
vn -0.0000 0.8819 0.4714
vn -0.0000 0.9569 0.2903
vn -0.0000 0.9952 0.0980
vt 0.820580 0.263223
vt 0.820580 0.384356
vt 0.665438 0.384356
vt 0.665438 0.263223
vt 0.665438 0.621911
vt 0.665438 0.739920
vt 0.647056 0.739920
vt 0.647056 0.621911
vt 0.838987 0.001081
vt 0.993089 0.000059
vt 0.993089 0.021920
vt 0.838987 0.021920
vt 0.993089 0.999940
vt 0.838987 0.996255
vt 0.838987 0.978447
vt 0.993089 0.978447
vt 0.820580 0.739920
vt 0.820580 0.621911
vt 0.838987 0.621911
vt 0.838987 0.739920
vt 0.665438 0.021920
vt 0.665438 0.141999
vt 0.647056 0.141999
vt 0.647056 0.021920
vt 0.665438 0.859485
vt 0.665438 0.978447
vt 0.647056 0.978447
vt 0.647056 0.859485
vt 0.647056 0.384356
vt 0.647056 0.263223
vt 0.820580 0.141999
vt 0.820580 0.021920
vt 0.838987 0.141999
vt 0.993089 0.141999
vt 0.993089 0.263223
vt 0.838987 0.263223
vt 0.993089 0.384356
vt 0.838987 0.384356
vt 0.993089 0.503968
vt 0.838987 0.503968
vt 0.993089 0.621911
vt 0.993089 0.739920
vt 0.993089 0.859485
vt 0.838987 0.859485
vt 0.820580 0.503968
vt 0.665438 0.503968
vt 0.647056 0.503968
vt 0.820580 0.859485
vt 0.820580 0.978447
s 0
usemtl Material
f 5/1/1 7/2/1 8/3/1 6/4/1
f 12/5/2 14/6/2 32/7/2 30/8/2
f 1/9/3 4/10/3 22/11/3 19/12/3
f 18/13/4 17/14/4 35/15/4 36/16/4
f 13/17/5 11/18/5 29/19/5 31/20/5
f 4/21/6 3/22/6 21/23/6 22/24/6
f 16/25/7 18/26/7 36/27/7 34/28/7
f 6/4/8 8/3/8 26/29/8 24/30/8
f 2/31/9 1/32/9 19/12/9 20/33/9
f 2/31/10 5/1/10 6/4/10 3/22/10
f 1/32/11 2/31/11 3/22/11 4/21/11
f 19/12/12 22/11/12 21/34/12 20/33/12
f 20/33/13 21/34/13 24/35/13 23/36/13
f 23/36/14 24/35/14 26/37/14 25/38/14
f 25/38/15 26/37/15 28/39/15 27/40/15
f 27/40/16 28/39/16 30/41/16 29/19/16
f 29/19/17 30/41/17 32/42/17 31/20/17
f 31/20/18 32/42/18 34/43/18 33/44/18
f 33/44/19 34/43/19 36/16/19 35/15/19
f 9/45/20 7/2/20 25/38/20 27/40/20
f 8/3/21 10/46/21 28/47/21 26/29/21
f 5/1/22 2/31/22 20/33/22 23/36/22
f 15/48/23 13/17/23 31/20/23 33/44/23
f 3/22/24 6/4/24 24/30/24 21/23/24
f 14/6/25 16/25/25 34/28/25 32/7/25
f 11/18/26 9/45/26 27/40/26 29/19/26
f 10/46/27 12/5/27 30/8/27 28/47/27
f 7/2/28 5/1/28 23/36/28 25/38/28
f 17/49/29 15/48/29 33/44/29 35/15/29
f 7/2/30 9/45/30 10/46/30 8/3/30
f 12/5/31 10/46/31 9/45/31 11/18/31
f 14/6/32 12/5/32 11/18/32 13/17/32
f 16/25/33 14/6/33 13/17/33 15/48/33
f 15/48/34 17/49/34 18/26/34 16/25/34
o HCurve
v 3.947275 -0.000014 5.235105
v 24.912188 -0.000001 26.200016
v 20.822136 -0.000003 25.797184
v 16.889261 -0.000006 24.604158
v 13.264708 -0.000008 22.666798
v 10.087751 -0.000010 20.059530
v 7.480501 -0.000011 16.882584
v 5.543135 -0.000013 13.258025
v 4.350109 -0.000014 9.325154
v -3.791336 -0.000019 5.235106
v 24.912188 -0.000000 33.938625
v 19.312407 -0.000004 33.387100
v 13.927824 -0.000007 31.753704
v 8.965366 -0.000010 29.101219
v 4.615728 -0.000012 25.531555
v 1.046083 -0.000015 21.181927
v -1.606409 -0.000017 16.219463
v -3.239803 -0.000018 10.834882
v 29.942152 0.000002 26.200014
v 29.942152 0.000003 33.938625
v 3.947273 -0.000015 -0.180519
v -3.791336 -0.000019 -0.180518
v 20.822136 -0.836716 25.797184
v 24.912188 -0.836714 26.200016
v 16.889261 -0.836719 24.604158
v 13.264708 -0.836721 22.666798
v 10.087751 -0.836723 20.059530
v 7.480501 -0.836725 16.882584
v 5.543135 -0.836726 13.258025
v 4.350109 -0.836727 9.325154
v 3.947275 -0.836727 5.235105
v 19.312407 -0.836717 33.387100
v 24.912189 -0.836713 33.938625
v 13.927824 -0.836720 31.753704
v 8.965366 -0.836723 29.101219
v 4.615728 -0.836726 25.531555
v 1.046083 -0.836728 21.181927
v -1.606409 -0.836730 16.219463
v -3.239803 -0.836731 10.834882
v -3.791336 -0.836732 5.235106
v 29.942152 -0.836711 26.200014
v 29.942154 -0.836711 33.938625
v 3.947273 -0.836728 -0.180519
v -3.791336 -0.836732 -0.180518
vn -0.4714 -0.0000 0.8819
vn 0.4714 -0.0000 -0.8819
vn -0.2903 -0.0000 0.9569
vn -0.0000 -0.0000 -1.0000
vn 0.2903 -0.0000 -0.9569
vn -0.0980 -0.0000 0.9952
vn -0.9952 -0.0000 0.0980
vn 0.0980 -0.0000 -0.9952
vn -1.0000 -0.0000 -0.0000
vn -0.0000 1.0000 -0.0000
vn 0.9952 -0.0000 -0.0980
vn -0.0000 -1.0000 -0.0000
vn 1.0000 -0.0000 -0.0000
vn 0.6344 -0.0000 -0.7730
vn -0.6344 -0.0000 0.7730
vn -0.0000 -0.0000 1.0000
vn 0.7730 -0.0000 -0.6344
vn -0.7730 -0.0000 0.6344
vn 0.8819 -0.0000 -0.4714
vn -0.8819 -0.0000 0.4714
vn 0.9569 -0.0000 -0.2903
vn -0.9569 -0.0000 0.2903
vt 0.026645 0.312754
vt 0.026645 0.411399
vt 0.011184 0.411399
vt 0.011184 0.312754
vt 0.175367 0.411399
vt 0.175367 0.312754
vt 0.190984 0.312754
vt 0.190984 0.411399
vt 0.026645 0.214080
vt 0.011184 0.214080
vt 0.337172 0.992202
vt 0.190776 0.992202
vt 0.190984 0.975416
vt 0.337172 0.975416
vt 0.175367 0.214080
vt 0.190984 0.214080
vt 0.026645 0.117248
vt 0.011184 0.117248
vt 0.026645 0.789682
vt 0.026645 0.878459
vt 0.011184 0.878459
vt 0.011184 0.789682
vt 0.175367 0.117248
vt 0.190984 0.117248
vt 0.026645 0.975416
vt 0.011184 0.975416
vt 0.175367 0.509170
vt 0.026645 0.509170
vt 0.175367 0.604959
vt 0.026645 0.604959
vt 0.175367 0.698396
vt 0.026645 0.698396
vt 0.175367 0.789682
vt 0.175367 0.878459
vt 0.175367 0.975416
vt 0.190984 0.789682
vt 0.190984 0.878459
vt 0.190984 0.698396
vt 0.190984 0.604959
vt 0.337172 0.604959
vt 0.337172 0.698396
vt 0.190984 0.509170
vt 0.337172 0.411399
vt 0.337172 0.509170
vt 0.337172 0.214080
vt 0.337172 0.312754
vt 0.337172 0.789682
vt 0.337172 0.117248
vt 0.337172 0.878459
vt 0.190984 0.020119
vt 0.337172 0.020119
vt 0.190984 0.005737
vt 0.337172 0.005737
vt 0.011184 0.509170
vt 0.026645 0.020119
vt 0.011184 0.020119
vt 0.011184 0.604959
vt 0.175367 0.020119
vt 0.011184 0.698396
s 0
usemtl Material
f 49/50/35 50/51/35 71/52/35 70/53/35
f 41/54/36 40/55/36 61/56/36 62/57/36
f 48/58/37 49/50/37 70/53/37 68/59/37
f 58/60/38 57/61/38 79/62/38 80/63/38
f 40/55/39 39/64/39 59/65/39 61/56/39
f 47/66/40 48/58/40 68/59/40 69/67/40
f 54/68/41 46/69/41 76/70/41 75/71/41
f 39/64/42 38/72/42 60/73/42 59/65/42
f 46/69/43 58/74/43 80/75/43 76/70/43
f 41/54/44 42/76/44 51/77/44 50/51/44
f 42/76/44 43/78/44 52/79/44 51/77/44
f 43/78/44 44/80/44 53/81/44 52/79/44
f 44/80/44 45/82/44 54/68/44 53/81/44
f 45/82/44 37/83/44 46/69/44 54/68/44
f 57/84/44 58/74/44 46/69/44 37/83/44
f 37/83/45 45/82/45 66/85/45 67/86/45
f 65/87/46 64/88/46 73/89/46 74/90/46
f 63/91/46 62/57/46 71/92/46 72/93/46
f 61/56/46 59/65/46 68/94/46 70/95/46
f 66/85/46 65/87/46 74/90/46 75/96/46
f 64/88/46 63/91/46 72/93/46 73/89/46
f 62/57/46 61/56/46 70/95/46 71/92/46
f 59/65/46 60/73/46 69/97/46 68/94/46
f 67/86/46 66/85/46 75/96/46 76/98/46
f 69/97/46 60/73/46 77/99/46 78/100/46
f 76/98/46 80/63/46 79/62/46 67/86/46
f 55/101/47 56/102/47 78/100/47 77/99/47
f 42/76/48 41/54/48 62/57/48 63/91/48
f 50/51/49 51/77/49 72/103/49 71/52/49
f 56/104/50 47/66/50 69/67/50 78/105/50
f 43/78/51 42/76/51 63/91/51 64/88/51
f 51/77/52 52/79/52 73/106/52 72/103/52
f 38/72/38 55/107/38 77/99/38 60/73/38
f 44/80/53 43/78/53 64/88/53 65/87/53
f 52/79/54 53/81/54 74/108/54 73/106/54
f 45/82/55 44/80/55 65/87/55 66/85/55
f 57/84/47 37/83/47 67/86/47 79/62/47
f 53/81/56 54/68/56 75/71/56 74/108/56
f 40/55/44 41/54/44 50/51/44 49/50/44
f 39/64/44 40/55/44 49/50/44 48/58/44
f 38/72/44 39/64/44 48/58/44 47/66/44
f 56/104/44 55/107/44 38/72/44 47/66/44
