# Blender 4.4.0
# www.blender.org
mtllib TwistL.mtl
o TwistL
v 3.959740 0.135420 -0.181505
v -3.821176 0.135423 -0.181506
v 3.959739 -1.711335 -0.181505
v -3.821176 -1.711331 -0.181506
v 1.991944 4.100934 -30.181503
v 0.145190 4.100934 -30.181503
v 1.991940 -3.679982 -30.181503
v 0.145186 -3.679982 -30.181503
v 3.959739 -1.711335 -1.149247
v 3.963807 -1.703080 -2.116989
v 4.061593 -1.489743 -3.084731
v 4.147701 -1.271431 -4.052473
v 4.221880 -1.048782 -5.020215
v 4.283913 -0.822449 -5.987957
v 4.333618 -0.593093 -6.955699
v 4.370850 -0.361385 -7.923441
v 4.395501 -0.128002 -8.891183
v 4.407497 0.106371 -9.858925
v 4.406804 0.341050 -10.826667
v 4.393424 0.575349 -11.794409
v 4.367395 0.808582 -12.762151
v 4.328795 1.040065 -13.729893
v 4.277737 1.269124 -14.697635
v 4.214368 1.495087 -15.665377
v 4.138875 1.717293 -16.633118
v 4.051479 1.935093 -17.600861
v 3.952435 2.147849 -18.568602
v 3.842034 2.354939 -19.536343
v 3.720597 2.555758 -20.504086
v 3.588480 2.749717 -21.471828
v 3.446070 2.936249 -22.439569
v 3.293784 3.114809 -23.407310
v 3.132066 3.284873 -24.375053
v 2.961390 3.445946 -25.342796
v 2.782255 3.597556 -26.310537
v 2.595185 3.739259 -27.278278
v 2.400727 3.870641 -28.246021
v 2.199450 3.991317 -29.213764
v 1.778765 -3.778218 -29.213764
v 1.560590 -3.864785 -28.246021
v 1.338054 -3.939430 -27.278280
v 1.111807 -4.001934 -26.310537
v 0.882513 -4.052114 -25.342796
v 0.650840 -4.089824 -24.375053
v 0.417468 -4.114954 -23.407312
v 0.183078 -4.127428 -22.439571
v -0.051644 -4.127212 -21.471828
v -0.286010 -4.114305 -20.504086
v -0.519337 -4.088748 -19.536343
v -0.750939 -4.050611 -18.568602
v -0.980141 -4.000010 -17.600861
v -1.206273 -3.937089 -16.633118
v -1.428671 -3.862035 -15.665376
v -1.646687 -3.775067 -14.697634
v -1.859681 -3.676439 -13.729892
v -2.067031 -3.566438 -12.762150
v -2.268132 -3.445390 -11.794408
v -2.462393 -3.313644 -10.826666
v -2.649247 -3.171589 -9.858924
v -2.828147 -3.019639 -8.891182
v -2.998571 -2.858238 -7.923440
v -3.160019 -2.687860 -6.955698
v -3.312019 -2.509002 -5.987956
v -3.454127 -2.322188 -5.020214
v -3.585927 -2.127964 -4.052473
v -3.707032 -1.926897 -3.084731
v -3.817090 -1.719578 -2.116989
v -3.821176 -1.711331 -1.149248
v -0.065288 -3.678371 -29.213764
v -0.275367 -3.665385 -28.246021
v -0.484438 -3.641058 -27.278280
v -0.691887 -3.605463 -26.310537
v -0.897108 -3.558705 -25.342796
v -1.099501 -3.500920 -24.375053
v -1.298474 -3.432277 -23.407312
v -1.493445 -3.352976 -22.439571
v -1.683843 -3.263250 -21.471828
v -1.869111 -3.163362 -20.504086
v -2.048708 -3.053602 -19.536343
v -2.222107 -2.934294 -18.568602
v -2.388803 -2.805784 -17.600861
v -2.548307 -2.668450 -16.633118
v -2.700153 -2.522694 -15.665376
v -2.843895 -2.368940 -14.697634
v -2.979115 -2.207640 -13.729892
v -3.105416 -2.039266 -12.762150
v -3.222430 -1.864309 -11.794408
v -3.329813 -1.683281 -10.826666
v -3.427251 -1.496712 -9.858924
v -3.514460 -1.305148 -8.891182
v -3.591185 -1.109150 -7.923440
v -3.657200 -0.909290 -6.955698
v -3.712313 -0.706152 -5.987956
v -3.756363 -0.500333 -5.020214
v -3.789220 -0.292433 -4.052473
v -3.810789 -0.083061 -3.084731
v -3.821007 0.127172 -2.116989
v -3.821176 0.135423 -1.149248
v 0.355397 4.091163 -29.213764
v 0.564769 4.070042 -28.246021
v 0.772693 4.037632 -27.278280
v 0.978561 3.994027 -26.310537
v 1.181769 3.939356 -25.342796
v 1.381725 3.873778 -24.375053
v 1.577842 3.797485 -23.407312
v 1.769548 3.710701 -22.439571
v 1.956282 3.613678 -21.471828
v 2.137497 3.506702 -20.504086
v 2.312663 3.390084 -19.536343
v 2.481267 3.264167 -18.568602
v 2.642817 3.129318 -17.600861
v 2.796841 2.985932 -16.633118
v 2.942886 2.834428 -15.665376
v 3.080527 2.675250 -14.697634
v 3.209361 2.508863 -13.729892
v 3.329010 2.335754 -12.762150
v 3.439125 2.156429 -11.794408
v 3.539383 1.971412 -10.826666
v 3.629492 1.781247 -9.858924
v 3.709188 1.586487 -8.891182
v 3.778236 1.387703 -7.923440
v 3.836437 1.185477 -6.955698
v 3.883619 0.980400 -5.987956
v 3.919644 0.773072 -5.020214
v 3.944407 0.564100 -4.052472
v 3.957836 0.354094 -3.084730
v 3.959891 0.143669 -2.116989
v 3.959740 0.135420 -1.149247
vn -0.0000 -0.0000 1.0000
vn -0.0000 -0.0000 -1.0000
vn 0.9984 -0.0559 -0.0000
vn 0.9996 -0.0270 -0.0000
vn 0.9986 -0.0523 -0.0000
vn -0.0577 -0.9968 -0.0558
vn -0.0270 -0.9981 -0.0557
vn -0.0503 -0.9972 -0.0558
vn -0.9985 0.0540 -0.0000
vn -0.9996 0.0270 -0.0000
vn -0.9985 0.0541 -0.0000
vn 0.0576 0.9968 0.0558
vn 0.0270 0.9981 0.0557
vn 0.0503 0.9972 0.0558
vn 1.0000 -0.0000 -0.0000
vn 1.0000 0.0005 0.0011
vn 0.9995 0.0140 0.0269
vn 0.9994 0.0160 0.0308
vn 0.9971 0.0524 0.0558
vn 0.9967 0.0598 0.0558
vn 0.9928 0.1063 0.0558
vn 0.9920 0.1136 0.0558
vn 0.9856 0.1598 0.0558
vn 0.9844 0.1670 0.0558
vn 0.9755 0.2128 0.0558
vn 0.9739 0.2200 0.0558
vn 0.9626 0.2653 0.0558
vn 0.9606 0.2723 0.0558
vn 0.9468 0.3169 0.0558
vn 0.9445 0.3239 0.0558
vn 0.9283 0.3676 0.0558
vn 0.9256 0.3745 0.0558
vn 0.9071 0.4173 0.0558
vn 0.9040 0.4240 0.0558
vn 0.8832 0.4657 0.0558
vn 0.8797 0.4722 0.0558
vn 0.8567 0.5128 0.0558
vn 0.8529 0.5191 0.0558
vn 0.8277 0.5584 0.0558
vn 0.8236 0.5644 0.0558
vn 0.7963 0.6023 0.0558
vn 0.7919 0.6081 0.0558
vn 0.7626 0.6445 0.0558
vn 0.7578 0.6501 0.0558
vn 0.7266 0.6848 0.0558
vn 0.7216 0.6901 0.0558
vn 0.6885 0.7230 0.0558
vn 0.6832 0.7281 0.0558
vn 0.6484 0.7592 0.0558
vn 0.6428 0.7640 0.0558
vn 0.6065 0.7932 0.0558
vn 0.6006 0.7976 0.0558
vn 0.5627 0.8248 0.0558
vn 0.5566 0.8289 0.0558
vn 0.5173 0.8540 0.0558
vn 0.5110 0.8578 0.0558
vn 0.4703 0.8807 0.0558
vn 0.4638 0.8842 0.0558
vn 0.4220 0.9049 0.0558
vn 0.4154 0.9079 0.0558
vn 0.3725 0.9264 0.0558
vn 0.3657 0.9291 0.0558
vn 0.3219 0.9451 0.0558
vn 0.3149 0.9475 0.0558
vn 0.2703 0.9612 0.0558
vn 0.2632 0.9631 0.0558
vn 0.2179 0.9744 0.0558
vn 0.2108 0.9759 0.0558
vn 0.1649 0.9847 0.0558
vn 0.1577 0.9859 0.0558
vn 0.1114 0.9922 0.0558
vn 0.1041 0.9930 0.0558
vn -0.0000 1.0000 -0.0000
vn -0.0005 1.0000 -0.0000
vn -0.0151 0.9999 -0.0000
vn -0.0563 0.9984 -0.0000
vn -0.0561 0.9984 -0.0000
vn -0.1102 0.9939 -0.0000
vn -0.1100 0.9939 -0.0000
vn -0.1637 0.9865 -0.0000
vn -0.1636 0.9865 -0.0000
vn -0.2168 0.9762 -0.0000
vn -0.2167 0.9762 -0.0000
vn -0.2693 0.9631 -0.0000
vn -0.2692 0.9631 -0.0000
vn -0.3210 0.9471 -0.0000
vn -0.3208 0.9471 -0.0000
vn -0.3717 0.9284 -0.0000
vn -0.3716 0.9284 -0.0000
vn -0.4213 0.9069 -0.0000
vn -0.4212 0.9070 -0.0000
vn -0.4698 0.8828 -0.0000
vn -0.4696 0.8829 -0.0000
vn -0.5168 0.8561 -0.0000
vn -0.5167 0.8562 -0.0000
vn -0.5623 0.8269 -0.0000
vn -0.5622 0.8270 -0.0000
vn -0.6062 0.7953 -0.0000
vn -0.6061 0.7954 -0.0000
vn -0.6483 0.7614 -0.0000
vn -0.6482 0.7615 -0.0000
vn -0.6885 0.7252 -0.0000
vn -0.6884 0.7253 -0.0000
vn -0.7267 0.6869 -0.0000
vn -0.7267 0.6870 -0.0000
vn -0.7628 0.6466 -0.0000
vn -0.7627 0.6467 -0.0000
vn -0.7967 0.6044 -0.0000
vn -0.7966 0.6045 -0.0000
vn -0.8282 0.5605 -0.0000
vn -0.8281 0.5606 -0.0000
vn -0.8573 0.5149 -0.0000
vn -0.8572 0.5150 -0.0000
vn -0.8839 0.4678 -0.0000
vn -0.8838 0.4679 -0.0000
vn -0.9079 0.4193 -0.0000
vn -0.9078 0.4194 -0.0000
vn -0.9292 0.3696 -0.0000
vn -0.9291 0.3697 -0.0000
vn -0.9478 0.3188 -0.0000
vn -0.9478 0.3190 -0.0000
vn -0.9637 0.2671 -0.0000
vn -0.9636 0.2672 -0.0000
vn -0.9767 0.2146 -0.0000
vn -0.9767 0.2148 -0.0000
vn -0.9869 0.1615 -0.0000
vn -0.9869 0.1616 -0.0000
vn -0.9942 0.1079 -0.0000
vn -0.9941 0.1080 -0.0000
vn -1.0000 -0.0000 -0.0000
vn -1.0000 -0.0005 -0.0011
vn -0.9995 -0.0140 -0.0269
vn -0.9994 -0.0160 -0.0307
vn -0.9971 -0.0524 -0.0558
vn -0.9967 -0.0598 -0.0558
vn -0.9928 -0.1063 -0.0558
vn -0.9920 -0.1136 -0.0558
vn -0.9856 -0.1598 -0.0558
vn -0.9844 -0.1670 -0.0558
vn -0.9755 -0.2128 -0.0558
vn -0.9739 -0.2200 -0.0558
vn -0.9626 -0.2653 -0.0558
vn -0.9606 -0.2723 -0.0558
vn -0.9468 -0.3169 -0.0558
vn -0.9445 -0.3239 -0.0558
vn -0.9283 -0.3676 -0.0558
vn -0.9256 -0.3745 -0.0558
vn -0.9071 -0.4173 -0.0558
vn -0.9040 -0.4239 -0.0558
vn -0.8832 -0.4657 -0.0558
vn -0.8797 -0.4722 -0.0558
vn -0.8567 -0.5128 -0.0558
vn -0.8529 -0.5191 -0.0558
vn -0.8277 -0.5584 -0.0558
vn -0.8236 -0.5644 -0.0558
vn -0.7963 -0.6023 -0.0558
vn -0.7919 -0.6081 -0.0558
vn -0.7626 -0.6445 -0.0558
vn -0.7578 -0.6501 -0.0558
vn -0.7266 -0.6848 -0.0558
vn -0.7216 -0.6901 -0.0558
vn -0.6886 -0.7230 -0.0558
vn -0.6832 -0.7281 -0.0558
vn -0.6485 -0.7592 -0.0558
vn -0.6429 -0.7640 -0.0558
vn -0.6065 -0.7932 -0.0558
vn -0.6006 -0.7976 -0.0558
vn -0.5627 -0.8248 -0.0558
vn -0.5566 -0.8289 -0.0558
vn -0.5173 -0.8540 -0.0558
vn -0.5110 -0.8578 -0.0558
vn -0.4703 -0.8807 -0.0558
vn -0.4639 -0.8842 -0.0558
vn -0.4220 -0.9049 -0.0558
vn -0.4154 -0.9079 -0.0558
vn -0.3725 -0.9264 -0.0558
vn -0.3657 -0.9291 -0.0558
vn -0.3219 -0.9451 -0.0558
vn -0.3149 -0.9475 -0.0558
vn -0.2703 -0.9612 -0.0558
vn -0.2632 -0.9631 -0.0558
vn -0.2179 -0.9744 -0.0558
vn -0.2108 -0.9759 -0.0558
vn -0.1649 -0.9847 -0.0558
vn -0.1577 -0.9859 -0.0558
vn -0.1115 -0.9922 -0.0558
vn -0.1042 -0.9930 -0.0558
vn -0.0000 -1.0000 -0.0000
vn 0.0005 -1.0000 -0.0000
vn 0.0146 -0.9999 -0.0000
vn 0.0156 -0.9999 -0.0000
vn 0.0544 -0.9985 -0.0000
vn 0.0580 -0.9983 -0.0000
vn 0.1083 -0.9941 -0.0000
vn 0.1119 -0.9937 -0.0000
vn 0.1619 -0.9868 -0.0000
vn 0.1654 -0.9862 -0.0000
vn 0.2150 -0.9766 -0.0000
vn 0.2185 -0.9758 -0.0000
vn 0.2675 -0.9636 -0.0000
vn 0.2710 -0.9626 -0.0000
vn 0.3192 -0.9477 -0.0000
vn 0.3226 -0.9465 -0.0000
vn 0.3700 -0.9291 -0.0000
vn 0.3733 -0.9277 -0.0000
vn 0.4196 -0.9077 -0.0000
vn 0.4229 -0.9062 -0.0000
vn 0.4681 -0.8837 -0.0000
vn 0.4713 -0.8820 -0.0000
vn 0.5152 -0.8571 -0.0000
vn 0.5183 -0.8552 -0.0000
vn 0.5608 -0.8280 -0.0000
vn 0.5638 -0.8259 -0.0000
vn 0.6047 -0.7964 -0.0000
vn 0.6076 -0.7942 -0.0000
vn 0.6469 -0.7626 -0.0000
vn 0.6497 -0.7602 -0.0000
vn 0.6872 -0.7265 -0.0000
vn 0.6898 -0.7240 -0.0000
vn 0.7255 -0.6883 -0.0000
vn 0.7279 -0.6856 -0.0000
vn 0.7616 -0.6480 -0.0000
vn 0.7639 -0.6453 -0.0000
vn 0.7955 -0.6059 -0.0000
vn 0.7977 -0.6030 -0.0000
vn 0.8271 -0.5620 -0.0000
vn 0.8292 -0.5590 -0.0000
vn 0.8563 -0.5165 -0.0000
vn 0.8582 -0.5134 -0.0000
vn 0.8830 -0.4694 -0.0000
vn 0.8847 -0.4662 -0.0000
vn 0.9071 -0.4210 -0.0000
vn 0.9086 -0.4177 -0.0000
vn 0.9285 -0.3713 -0.0000
vn 0.9298 -0.3680 -0.0000
vn 0.9472 -0.3206 -0.0000
vn 0.9484 -0.3172 -0.0000
vn 0.9632 -0.2689 -0.0000
vn 0.9641 -0.2654 -0.0000
vn 0.9763 -0.2164 -0.0000
vn 0.9771 -0.2129 -0.0000
vn 0.9866 -0.1633 -0.0000
vn 0.9872 -0.1598 -0.0000
vn 0.9940 -0.1098 -0.0000
vn 0.9943 -0.1062 -0.0000
vt 0.295854 0.812500
vt 0.235396 0.812500
vt 0.235396 0.798151
vt 0.295854 0.798151
vt 0.235396 0.798151
vt 0.235396 0.812500
vt 0.295854 0.812500
vt 0.295854 0.798151
vt 0.295854 0.798151
vt 0.295854 0.812500
vt 0.295854 0.798151
vt 0.295854 0.812500
vt 0.295854 0.812500
vt 0.295854 0.812500
vt 0.295854 0.798151
vt 0.295854 0.812500
vt 0.295854 0.798151
vt 0.295854 0.798151
vt 0.295854 0.798151
vt 0.295854 0.812500
vt 0.295854 0.798151
vt 0.235396 0.812500
vt 0.235396 0.812500
vt 0.235396 0.812500
vt 0.235396 0.812500
vt 0.235396 0.812500
vt 0.235396 0.798151
vt 0.235396 0.798151
vt 0.235396 0.798151
vt 0.235396 0.798151
vt 0.235396 0.798151
vt 0.235396 0.798151
s 1
usemtl m_64bb1825-406a-7bf5-9c2e-91d9282f6600
f 1/1/1 2/2/1 4/3/1 3/4/1
f 6/1/2 5/4/2 7/3/2 8/2/2
f 39/5/3 7/3/4 5/4/4 38/4/5
f 69/6/6 8/2/7 7/3/7 39/5/8
f 99/7/9 6/1/10 8/2/10 69/6/11
f 38/4/12 5/4/13 6/1/13 99/7/14
f 3/4/15 9/8/16 128/1/16 1/1/15
f 9/8/16 10/9/17 127/1/18 128/1/16
f 10/9/17 11/9/19 126/10/20 127/1/18
f 11/9/19 12/9/21 125/10/22 126/10/20
f 12/9/21 13/8/23 124/1/24 125/10/22
f 13/8/23 14/8/25 123/7/26 124/1/24
f 14/8/25 15/11/27 122/12/28 123/7/26
f 15/11/27 16/11/29 121/13/30 122/12/28
f 16/11/29 17/11/31 120/14/32 121/13/30
f 17/11/31 18/4/33 119/14/34 120/14/32
f 18/4/33 19/4/35 118/13/36 119/14/34
f 19/4/35 20/15/37 117/12/38 118/13/36
f 20/15/37 21/15/39 116/16/40 117/12/38
f 21/15/39 22/17/41 115/12/42 116/16/40
f 22/17/41 23/18/43 114/12/44 115/12/42
f 23/18/43 24/18/45 113/12/46 114/12/44
f 24/18/45 25/19/47 112/16/48 113/12/46
f 25/19/47 26/15/49 111/16/50 112/16/48
f 26/15/49 27/9/51 110/20/52 111/16/50
f 27/9/51 28/21/53 109/20/54 110/20/52
f 28/21/53 29/21/55 108/20/56 109/20/54
f 29/21/55 30/21/57 107/20/58 108/20/56
f 30/21/57 31/21/59 106/20/60 107/20/58
f 31/21/59 32/9/61 105/20/62 106/20/60
f 32/9/61 33/9/63 104/12/64 105/20/62
f 33/9/63 34/4/65 103/12/66 104/12/64
f 34/4/65 35/11/67 102/12/68 103/12/66
f 35/11/67 36/11/69 101/12/70 102/12/68
f 36/11/69 37/4/71 100/7/72 101/12/70
f 37/4/71 38/4/12 99/7/14 100/7/72
f 1/1/73 128/1/74 98/2/74 2/2/73
f 128/1/74 127/1/75 97/2/75 98/2/74
f 127/1/75 126/10/76 96/22/77 97/2/75
f 126/10/76 125/10/78 95/22/79 96/22/77
f 125/10/78 124/1/80 94/2/81 95/22/79
f 124/1/80 123/7/82 93/2/83 94/2/81
f 123/7/82 122/12/84 92/23/85 93/2/83
f 122/12/84 121/13/86 91/23/87 92/23/85
f 121/13/86 120/14/88 90/24/89 91/23/87
f 120/14/88 119/14/90 89/25/91 90/24/89
f 119/14/90 118/13/92 88/23/93 89/25/91
f 118/13/92 117/12/94 87/23/95 88/23/93
f 117/12/94 116/16/96 86/26/97 87/23/95
f 116/16/96 115/12/98 85/26/99 86/26/97
f 115/12/98 114/12/100 84/26/101 85/26/99
f 114/12/100 113/12/102 83/26/103 84/26/101
f 113/12/102 112/16/104 82/26/105 83/26/103
f 112/16/104 111/16/106 81/23/107 82/26/105
f 111/16/106 110/20/108 80/24/109 81/23/107
f 110/20/108 109/20/110 79/24/111 80/24/109
f 109/20/110 108/20/112 78/24/113 79/24/111
f 108/20/112 107/20/114 77/24/115 78/24/113
f 107/20/114 106/20/116 76/24/117 77/24/115
f 106/20/116 105/20/118 75/24/119 76/24/117
f 105/20/118 104/12/120 74/26/121 75/24/119
f 104/12/120 103/12/122 73/23/123 74/26/121
f 103/12/122 102/12/124 72/23/125 73/23/123
f 102/12/124 101/12/126 71/23/127 72/23/125
f 101/12/126 100/7/128 70/2/129 71/23/127
f 100/7/128 99/7/9 69/6/11 70/2/129
f 2/2/130 98/2/131 68/3/131 4/3/130
f 98/2/131 97/2/132 67/3/133 68/3/131
f 97/2/132 96/22/134 66/27/135 67/3/133
f 96/22/134 95/22/136 65/27/137 66/27/135
f 95/22/136 94/2/138 64/3/139 65/27/137
f 94/2/138 93/2/140 63/3/141 64/3/139
f 93/2/140 92/23/142 62/3/143 63/3/141
f 92/23/142 91/23/144 61/27/145 62/3/143
f 91/23/144 90/24/146 60/28/147 61/27/145
f 90/24/146 89/25/148 59/27/149 60/28/147
f 89/25/148 88/23/150 58/27/151 59/27/149
f 88/23/150 87/23/152 57/3/153 58/27/151
f 87/23/152 86/26/154 56/29/155 57/3/153
f 86/26/154 85/26/156 55/29/157 56/29/155
f 85/26/156 84/26/158 54/30/159 55/29/157
f 84/26/158 83/26/160 53/30/161 54/30/159
f 83/26/160 82/26/162 52/30/163 53/30/161
f 82/26/162 81/23/164 51/31/165 52/30/163
f 81/23/164 80/24/166 50/29/167 51/31/165
f 80/24/166 79/24/168 49/32/169 50/29/167
f 79/24/168 78/24/170 48/32/171 49/32/169
f 78/24/170 77/24/172 47/28/173 48/32/171
f 77/24/172 76/24/174 46/28/175 47/28/173
f 76/24/174 75/24/176 45/28/177 46/28/175
f 75/24/176 74/26/178 44/28/179 45/28/177
f 74/26/178 73/23/180 43/27/181 44/28/179
f 73/23/180 72/23/182 42/3/183 43/27/181
f 72/23/182 71/23/184 41/3/185 42/3/183
f 71/23/184 70/2/186 40/3/187 41/3/185
f 70/2/186 69/6/6 39/5/8 40/3/187
f 4/3/188 68/3/189 9/8/189 3/4/188
f 68/3/189 67/3/190 10/9/191 9/8/189
f 67/3/190 66/27/192 11/9/193 10/9/191
f 66/27/192 65/27/194 12/9/195 11/9/193
f 65/27/194 64/3/196 13/8/197 12/9/195
f 64/3/196 63/3/198 14/8/199 13/8/197
f 63/3/198 62/3/200 15/11/201 14/8/199
f 62/3/200 61/27/202 16/11/203 15/11/201
f 61/27/202 60/28/204 17/11/205 16/11/203
f 60/28/204 59/27/206 18/4/207 17/11/205
f 59/27/206 58/27/208 19/4/209 18/4/207
f 58/27/208 57/3/210 20/15/211 19/4/209
f 57/3/210 56/29/212 21/15/213 20/15/211
f 56/29/212 55/29/214 22/17/215 21/15/213
f 55/29/214 54/30/216 23/18/217 22/17/215
f 54/30/216 53/30/218 24/18/219 23/18/217
f 53/30/218 52/30/220 25/19/221 24/18/219
f 52/30/220 51/31/222 26/15/223 25/19/221
f 51/31/222 50/29/224 27/9/225 26/15/223
f 50/29/224 49/32/226 28/21/227 27/9/225
f 49/32/226 48/32/228 29/21/229 28/21/227
f 48/32/228 47/28/230 30/21/231 29/21/229
f 47/28/230 46/28/232 31/21/233 30/21/231
f 46/28/232 45/28/234 32/9/235 31/21/233
f 45/28/234 44/28/236 33/9/237 32/9/235
f 44/28/236 43/27/238 34/4/239 33/9/237
f 43/27/238 42/3/240 35/11/241 34/4/239
f 42/3/240 41/3/242 36/11/243 35/11/241
f 41/3/242 40/3/244 37/4/245 36/11/243
f 40/3/244 39/5/3 38/4/5 37/4/245
