# Blender 4.4.0
# www.blender.org
mtllib TwistR.mtl
o TwistR
v -3.812063 0.135420 -0.181505
v 3.968852 0.135423 -0.181506
v -3.812063 -1.711335 -0.181505
v 3.968853 -1.711331 -0.181506
v -1.844268 4.100934 -30.181503
v 0.002486 4.100934 -30.181503
v -1.844264 -3.679982 -30.181503
v 0.002490 -3.679982 -30.181503
v -3.812063 -1.711335 -1.149247
v -3.816131 -1.703080 -2.116989
v -3.913916 -1.489743 -3.084731
v -4.000024 -1.271431 -4.052473
v -4.074203 -1.048782 -5.020215
v -4.136236 -0.822449 -5.987957
v -4.185941 -0.593093 -6.955699
v -4.223174 -0.361385 -7.923441
v -4.247824 -0.128002 -8.891183
v -4.259820 0.106371 -9.858925
v -4.259127 0.341050 -10.826667
v -4.245747 0.575349 -11.794409
v -4.219719 0.808582 -12.762151
v -4.181119 1.040065 -13.729893
v -4.130060 1.269124 -14.697635
v -4.066691 1.495087 -15.665377
v -3.991199 1.717293 -16.633118
v -3.903802 1.935093 -17.600861
v -3.804759 2.147849 -18.568602
v -3.694357 2.354939 -19.536343
v -3.572921 2.555758 -20.504086
v -3.440804 2.749717 -21.471828
v -3.298394 2.936249 -22.439569
v -3.146107 3.114809 -23.407310
v -2.984389 3.284873 -24.375053
v -2.813713 3.445946 -25.342796
v -2.634578 3.597556 -26.310537
v -2.447509 3.739259 -27.278278
v -2.253051 3.870641 -28.246021
v -2.051774 3.991317 -29.213764
v -1.631089 -3.778218 -29.213764
v -1.412914 -3.864785 -28.246021
v -1.190378 -3.939430 -27.278280
v -0.964130 -4.001934 -26.310537
v -0.734836 -4.052114 -25.342796
v -0.503163 -4.089824 -24.375053
v -0.269791 -4.114954 -23.407312
v -0.035401 -4.127428 -22.439571
v 0.199320 -4.127212 -21.471828
v 0.433687 -4.114305 -20.504086
v 0.667013 -4.088748 -19.536343
v 0.898616 -4.050611 -18.568602
v 1.127818 -4.000010 -17.600861
v 1.353949 -3.937089 -16.633118
v 1.576348 -3.862035 -15.665376
v 1.794363 -3.775067 -14.697634
v 2.007358 -3.676439 -13.729892
v 2.214708 -3.566438 -12.762150
v 2.415808 -3.445390 -11.794408
v 2.610069 -3.313644 -10.826666
v 2.796924 -3.171589 -9.858924
v 2.975824 -3.019639 -8.891182
v 3.146247 -2.858238 -7.923440
v 3.307695 -2.687860 -6.955698
v 3.459696 -2.509002 -5.987956
v 3.601804 -2.322188 -5.020215
v 3.733603 -2.127964 -4.052473
v 3.854709 -1.926897 -3.084731
v 3.964767 -1.719578 -2.116989
v 3.968853 -1.711331 -1.149248
v 0.212964 -3.678371 -29.213764
v 0.423044 -3.665385 -28.246021
v 0.632114 -3.641058 -27.278280
v 0.839564 -3.605463 -26.310537
v 1.044785 -3.558705 -25.342796
v 1.247178 -3.500920 -24.375053
v 1.446150 -3.432277 -23.407312
v 1.641121 -3.352976 -22.439571
v 1.831519 -3.263250 -21.471828
v 2.016787 -3.163362 -20.504086
v 2.196384 -3.053602 -19.536343
v 2.369784 -2.934294 -18.568602
v 2.536480 -2.805784 -17.600861
v 2.695984 -2.668450 -16.633118
v 2.847829 -2.522694 -15.665376
v 2.991572 -2.368940 -14.697634
v 3.126792 -2.207640 -13.729892
v 3.253093 -2.039266 -12.762150
v 3.370107 -1.864309 -11.794408
v 3.477489 -1.683281 -10.826666
v 3.574928 -1.496712 -9.858924
v 3.662137 -1.305148 -8.891182
v 3.738861 -1.109150 -7.923440
v 3.804876 -0.909290 -6.955698
v 3.859990 -0.706152 -5.987956
v 3.904039 -0.500333 -5.020215
v 3.936897 -0.292433 -4.052473
v 3.958466 -0.083061 -3.084731
v 3.968683 0.127172 -2.116990
v 3.968852 0.135423 -1.149248
v -0.207721 4.091163 -29.213764
v -0.417093 4.070042 -28.246021
v -0.625016 4.037632 -27.278280
v -0.830884 3.994027 -26.310537
v -1.034093 3.939355 -25.342796
v -1.234049 3.873777 -24.375053
v -1.430166 3.797485 -23.407312
v -1.621872 3.710700 -22.439571
v -1.808605 3.613678 -21.471828
v -1.989820 3.506702 -20.504086
v -2.164986 3.390084 -19.536343
v -2.333591 3.264167 -18.568602
v -2.495141 3.129318 -17.600861
v -2.649165 2.985932 -16.633118
v -2.795210 2.834428 -15.665376
v -2.932851 2.675250 -14.697634
v -3.061685 2.508863 -13.729892
v -3.181334 2.335754 -12.762150
v -3.291449 2.156429 -11.794408
v -3.391707 1.971413 -10.826666
v -3.481816 1.781247 -9.858924
v -3.561511 1.586487 -8.891182
v -3.630560 1.387703 -7.923440
v -3.688761 1.185477 -6.955698
v -3.735943 0.980400 -5.987956
v -3.771968 0.773072 -5.020214
v -3.796731 0.564100 -4.052472
v -3.810160 0.354094 -3.084730
v -3.812215 0.143669 -2.116989
v -3.812063 0.135420 -1.149247
vn -0.0000 -0.0000 1.0000
vn -0.0000 -0.0000 -1.0000
vn -0.9984 -0.0559 -0.0000
vn -0.9986 -0.0523 -0.0000
vn -0.9996 -0.0270 -0.0000
vn 0.0577 -0.9968 -0.0558
vn 0.0503 -0.9972 -0.0558
vn 0.0270 -0.9981 -0.0557
vn 0.9985 0.0540 -0.0000
vn 0.9985 0.0541 -0.0000
vn 0.9996 0.0270 -0.0000
vn -0.0576 0.9968 0.0558
vn -0.0503 0.9972 0.0558
vn -0.0270 0.9981 0.0557
vn -1.0000 -0.0000 -0.0000
vn -1.0000 0.0005 0.0011
vn -0.9994 0.0160 0.0308
vn -0.9995 0.0140 0.0269
vn -0.9967 0.0598 0.0558
vn -0.9971 0.0524 0.0558
vn -0.9920 0.1136 0.0558
vn -0.9928 0.1063 0.0558
vn -0.9844 0.1670 0.0558
vn -0.9856 0.1598 0.0558
vn -0.9739 0.2200 0.0558
vn -0.9755 0.2128 0.0558
vn -0.9606 0.2723 0.0558
vn -0.9626 0.2653 0.0558
vn -0.9445 0.3239 0.0558
vn -0.9468 0.3169 0.0558
vn -0.9256 0.3745 0.0558
vn -0.9283 0.3676 0.0558
vn -0.9040 0.4240 0.0558
vn -0.9071 0.4173 0.0558
vn -0.8797 0.4722 0.0558
vn -0.8832 0.4657 0.0558
vn -0.8529 0.5191 0.0558
vn -0.8567 0.5128 0.0558
vn -0.8236 0.5644 0.0558
vn -0.8277 0.5584 0.0558
vn -0.7919 0.6081 0.0558
vn -0.7963 0.6023 0.0558
vn -0.7578 0.6501 0.0558
vn -0.7626 0.6445 0.0558
vn -0.7216 0.6901 0.0558
vn -0.7266 0.6848 0.0558
vn -0.6832 0.7281 0.0558
vn -0.6885 0.7230 0.0558
vn -0.6428 0.7640 0.0558
vn -0.6484 0.7592 0.0558
vn -0.6006 0.7976 0.0558
vn -0.6065 0.7932 0.0558
vn -0.5566 0.8289 0.0558
vn -0.5627 0.8248 0.0558
vn -0.5110 0.8578 0.0558
vn -0.5173 0.8540 0.0558
vn -0.4638 0.8842 0.0558
vn -0.4703 0.8807 0.0558
vn -0.4154 0.9079 0.0558
vn -0.4220 0.9049 0.0558
vn -0.3657 0.9291 0.0558
vn -0.3725 0.9264 0.0558
vn -0.3149 0.9475 0.0558
vn -0.3219 0.9451 0.0558
vn -0.2632 0.9631 0.0558
vn -0.2703 0.9612 0.0558
vn -0.2108 0.9759 0.0558
vn -0.2179 0.9744 0.0558
vn -0.1577 0.9859 0.0558
vn -0.1649 0.9847 0.0558
vn -0.1041 0.9930 0.0558
vn -0.1114 0.9922 0.0558
vn -0.0000 1.0000 -0.0000
vn 0.0005 1.0000 -0.0000
vn 0.0151 0.9999 -0.0000
vn 0.0561 0.9984 -0.0000
vn 0.0563 0.9984 -0.0000
vn 0.1100 0.9939 -0.0000
vn 0.1102 0.9939 -0.0000
vn 0.1636 0.9865 -0.0000
vn 0.1637 0.9865 -0.0000
vn 0.2167 0.9762 -0.0000
vn 0.2168 0.9762 -0.0000
vn 0.2692 0.9631 -0.0000
vn 0.2693 0.9631 -0.0000
vn 0.3208 0.9471 -0.0000
vn 0.3210 0.9471 -0.0000
vn 0.3716 0.9284 -0.0000
vn 0.3717 0.9284 -0.0000
vn 0.4212 0.9070 -0.0000
vn 0.4213 0.9069 -0.0000
vn 0.4696 0.8829 -0.0000
vn 0.4698 0.8828 -0.0000
vn 0.5167 0.8562 -0.0000
vn 0.5168 0.8561 -0.0000
vn 0.5622 0.8270 -0.0000
vn 0.5623 0.8269 -0.0000
vn 0.6061 0.7954 -0.0000
vn 0.6062 0.7953 -0.0000
vn 0.6482 0.7615 -0.0000
vn 0.6483 0.7614 -0.0000
vn 0.6884 0.7253 -0.0000
vn 0.6885 0.7252 -0.0000
vn 0.7267 0.6870 -0.0000
vn 0.7267 0.6869 -0.0000
vn 0.7627 0.6467 -0.0000
vn 0.7628 0.6466 -0.0000
vn 0.7966 0.6045 -0.0000
vn 0.7967 0.6044 -0.0000
vn 0.8281 0.5606 -0.0000
vn 0.8282 0.5605 -0.0000
vn 0.8572 0.5150 -0.0000
vn 0.8573 0.5149 -0.0000
vn 0.8838 0.4679 -0.0000
vn 0.8839 0.4678 -0.0000
vn 0.9078 0.4194 -0.0000
vn 0.9079 0.4193 -0.0000
vn 0.9291 0.3697 -0.0000
vn 0.9292 0.3696 -0.0000
vn 0.9478 0.3190 -0.0000
vn 0.9478 0.3188 -0.0000
vn 0.9636 0.2672 -0.0000
vn 0.9637 0.2671 -0.0000
vn 0.9767 0.2148 -0.0000
vn 0.9767 0.2146 -0.0000
vn 0.9869 0.1616 -0.0000
vn 0.9869 0.1615 -0.0000
vn 0.9941 0.1080 -0.0000
vn 0.9942 0.1079 -0.0000
vn 1.0000 -0.0000 -0.0000
vn 1.0000 -0.0005 -0.0011
vn 0.9994 -0.0160 -0.0307
vn 0.9995 -0.0140 -0.0269
vn 0.9967 -0.0598 -0.0558
vn 0.9971 -0.0524 -0.0558
vn 0.9920 -0.1136 -0.0558
vn 0.9928 -0.1063 -0.0558
vn 0.9844 -0.1670 -0.0558
vn 0.9856 -0.1598 -0.0558
vn 0.9739 -0.2200 -0.0558
vn 0.9755 -0.2128 -0.0558
vn 0.9606 -0.2723 -0.0558
vn 0.9626 -0.2653 -0.0558
vn 0.9445 -0.3239 -0.0558
vn 0.9468 -0.3169 -0.0558
vn 0.9256 -0.3745 -0.0558
vn 0.9283 -0.3676 -0.0558
vn 0.9040 -0.4239 -0.0558
vn 0.9071 -0.4173 -0.0558
vn 0.8797 -0.4722 -0.0558
vn 0.8832 -0.4657 -0.0558
vn 0.8529 -0.5191 -0.0558
vn 0.8567 -0.5128 -0.0558
vn 0.8236 -0.5644 -0.0558
vn 0.8277 -0.5584 -0.0558
vn 0.7919 -0.6081 -0.0558
vn 0.7963 -0.6023 -0.0558
vn 0.7578 -0.6501 -0.0558
vn 0.7626 -0.6445 -0.0558
vn 0.7216 -0.6901 -0.0558
vn 0.7266 -0.6848 -0.0558
vn 0.6832 -0.7281 -0.0558
vn 0.6886 -0.7230 -0.0558
vn 0.6429 -0.7640 -0.0558
vn 0.6485 -0.7592 -0.0558
vn 0.6006 -0.7976 -0.0558
vn 0.6065 -0.7932 -0.0558
vn 0.5566 -0.8289 -0.0558
vn 0.5627 -0.8248 -0.0558
vn 0.5110 -0.8578 -0.0558
vn 0.5173 -0.8540 -0.0558
vn 0.4639 -0.8842 -0.0558
vn 0.4703 -0.8807 -0.0558
vn 0.4154 -0.9079 -0.0558
vn 0.4220 -0.9049 -0.0558
vn 0.3657 -0.9291 -0.0558
vn 0.3725 -0.9264 -0.0558
vn 0.3149 -0.9475 -0.0558
vn 0.3219 -0.9451 -0.0558
vn 0.2632 -0.9631 -0.0558
vn 0.2703 -0.9612 -0.0558
vn 0.2108 -0.9759 -0.0558
vn 0.2179 -0.9744 -0.0558
vn 0.1577 -0.9859 -0.0558
vn 0.1649 -0.9847 -0.0558
vn 0.1042 -0.9930 -0.0558
vn 0.1115 -0.9922 -0.0558
vn -0.0000 -1.0000 -0.0000
vn -0.0005 -1.0000 -0.0000
vn -0.0156 -0.9999 -0.0000
vn -0.0146 -0.9999 -0.0000
vn -0.0580 -0.9983 -0.0000
vn -0.0544 -0.9985 -0.0000
vn -0.1119 -0.9937 -0.0000
vn -0.1083 -0.9941 -0.0000
vn -0.1654 -0.9862 -0.0000
vn -0.1619 -0.9868 -0.0000
vn -0.2185 -0.9758 -0.0000
vn -0.2150 -0.9766 -0.0000
vn -0.2710 -0.9626 -0.0000
vn -0.2675 -0.9636 -0.0000
vn -0.3226 -0.9465 -0.0000
vn -0.3192 -0.9477 -0.0000
vn -0.3733 -0.9277 -0.0000
vn -0.3700 -0.9291 -0.0000
vn -0.4229 -0.9062 -0.0000
vn -0.4196 -0.9077 -0.0000
vn -0.4713 -0.8820 -0.0000
vn -0.4681 -0.8837 -0.0000
vn -0.5183 -0.8552 -0.0000
vn -0.5152 -0.8571 -0.0000
vn -0.5638 -0.8259 -0.0000
vn -0.5608 -0.8280 -0.0000
vn -0.6076 -0.7942 -0.0000
vn -0.6047 -0.7964 -0.0000
vn -0.6497 -0.7602 -0.0000
vn -0.6469 -0.7626 -0.0000
vn -0.6898 -0.7240 -0.0000
vn -0.6872 -0.7265 -0.0000
vn -0.7279 -0.6856 -0.0000
vn -0.7255 -0.6883 -0.0000
vn -0.7639 -0.6453 -0.0000
vn -0.7616 -0.6480 -0.0000
vn -0.7977 -0.6030 -0.0000
vn -0.7955 -0.6059 -0.0000
vn -0.8292 -0.5590 -0.0000
vn -0.8271 -0.5620 -0.0000
vn -0.8582 -0.5134 -0.0000
vn -0.8563 -0.5165 -0.0000
vn -0.8847 -0.4662 -0.0000
vn -0.8830 -0.4694 -0.0000
vn -0.9086 -0.4177 -0.0000
vn -0.9071 -0.4210 -0.0000
vn -0.9298 -0.3680 -0.0000
vn -0.9285 -0.3713 -0.0000
vn -0.9484 -0.3172 -0.0000
vn -0.9472 -0.3206 -0.0000
vn -0.9641 -0.2654 -0.0000
vn -0.9632 -0.2689 -0.0000
vn -0.9771 -0.2129 -0.0000
vn -0.9763 -0.2164 -0.0000
vn -0.9872 -0.1598 -0.0000
vn -0.9866 -0.1633 -0.0000
vn -0.9943 -0.1062 -0.0000
vn -0.9940 -0.1098 -0.0000
vt 0.295854 0.812500
vt 0.295854 0.798151
vt 0.235396 0.798151
vt 0.235396 0.812500
vt 0.235396 0.798151
vt 0.235396 0.812500
vt 0.295854 0.812500
vt 0.295854 0.798151
vt 0.295854 0.798151
vt 0.295854 0.812500
vt 0.295854 0.812500
vt 0.295854 0.798151
vt 0.295854 0.812500
vt 0.295854 0.812500
vt 0.295854 0.798151
vt 0.295854 0.812500
vt 0.295854 0.798151
vt 0.295854 0.798151
vt 0.295854 0.798151
vt 0.295854 0.812500
vt 0.295854 0.798151
vt 0.235396 0.812500
vt 0.235396 0.812500
vt 0.235396 0.812500
vt 0.235396 0.812500
vt 0.235396 0.812500
vt 0.235396 0.798151
vt 0.235396 0.798151
vt 0.235396 0.798151
vt 0.235396 0.798151
vt 0.235396 0.798151
vt 0.235396 0.798151
s 1
usemtl m_64bb1825-406a-7bf5-9c2e-91d9282f6600
f 1/1/1 3/2/1 4/3/1 2/4/1
f 6/1/2 8/4/2 7/3/2 5/2/2
f 39/5/3 38/2/4 5/2/5 7/3/5
f 69/6/6 39/5/7 7/3/8 8/4/8
f 99/7/9 69/6/10 8/4/11 6/1/11
f 38/2/12 99/7/13 6/1/14 5/2/14
f 3/2/15 1/1/15 128/1/16 9/8/16
f 9/8/16 128/1/16 127/1/17 10/9/18
f 10/9/18 127/1/17 126/10/19 11/9/20
f 11/9/20 126/10/19 125/10/21 12/9/22
f 12/9/22 125/10/21 124/1/23 13/8/24
f 13/8/24 124/1/23 123/7/25 14/8/26
f 14/8/26 123/7/25 122/11/27 15/12/28
f 15/12/28 122/11/27 121/13/29 16/12/30
f 16/12/30 121/13/29 120/14/31 17/12/32
f 17/12/32 120/14/31 119/14/33 18/2/34
f 18/2/34 119/14/33 118/13/35 19/2/36
f 19/2/36 118/13/35 117/11/37 20/15/38
f 20/15/38 117/11/37 116/16/39 21/15/40
f 21/15/40 116/16/39 115/11/41 22/17/42
f 22/17/42 115/11/41 114/11/43 23/18/44
f 23/18/44 114/11/43 113/11/45 24/18/46
f 24/18/46 113/11/45 112/16/47 25/19/48
f 25/19/48 112/16/47 111/16/49 26/15/50
f 26/15/50 111/16/49 110/20/51 27/9/52
f 27/9/52 110/20/51 109/20/53 28/21/54
f 28/21/54 109/20/53 108/20/55 29/21/56
f 29/21/56 108/20/55 107/20/57 30/21/58
f 30/21/58 107/20/57 106/20/59 31/21/60
f 31/21/60 106/20/59 105/20/61 32/9/62
f 32/9/62 105/20/61 104/11/63 33/9/64
f 33/9/64 104/11/63 103/11/65 34/2/66
f 34/2/66 103/11/65 102/11/67 35/12/68
f 35/12/68 102/11/67 101/11/69 36/12/70
f 36/12/70 101/11/69 100/7/71 37/2/72
f 37/2/72 100/7/71 99/7/13 38/2/12
f 1/1/73 2/4/73 98/4/74 128/1/74
f 128/1/74 98/4/74 97/4/75 127/1/75
f 127/1/75 97/4/75 96/22/76 126/10/77
f 126/10/77 96/22/76 95/22/78 125/10/79
f 125/10/79 95/22/78 94/4/80 124/1/81
f 124/1/81 94/4/80 93/4/82 123/7/83
f 123/7/83 93/4/82 92/23/84 122/11/85
f 122/11/85 92/23/84 91/23/86 121/13/87
f 121/13/87 91/23/86 90/24/88 120/14/89
f 120/14/89 90/24/88 89/25/90 119/14/91
f 119/14/91 89/25/90 88/23/92 118/13/93
f 118/13/93 88/23/92 87/23/94 117/11/95
f 117/11/95 87/23/94 86/26/96 116/16/97
f 116/16/97 86/26/96 85/26/98 115/11/99
f 115/11/99 85/26/98 84/26/100 114/11/101
f 114/11/101 84/26/100 83/26/102 113/11/103
f 113/11/103 83/26/102 82/26/104 112/16/105
f 112/16/105 82/26/104 81/23/106 111/16/107
f 111/16/107 81/23/106 80/24/108 110/20/109
f 110/20/109 80/24/108 79/24/110 109/20/111
f 109/20/111 79/24/110 78/24/112 108/20/113
f 108/20/113 78/24/112 77/24/114 107/20/115
f 107/20/115 77/24/114 76/24/116 106/20/117
f 106/20/117 76/24/116 75/24/118 105/20/119
f 105/20/119 75/24/118 74/26/120 104/11/121
f 104/11/121 74/26/120 73/23/122 103/11/123
f 103/11/123 73/23/122 72/23/124 102/11/125
f 102/11/125 72/23/124 71/23/126 101/11/127
f 101/11/127 71/23/126 70/4/128 100/7/129
f 100/7/129 70/4/128 69/6/10 99/7/9
f 2/4/130 4/3/130 68/3/131 98/4/131
f 98/4/131 68/3/131 67/3/132 97/4/133
f 97/4/133 67/3/132 66/27/134 96/22/135
f 96/22/135 66/27/134 65/27/136 95/22/137
f 95/22/137 65/27/136 64/3/138 94/4/139
f 94/4/139 64/3/138 63/3/140 93/4/141
f 93/4/141 63/3/140 62/3/142 92/23/143
f 92/23/143 62/3/142 61/27/144 91/23/145
f 91/23/145 61/27/144 60/28/146 90/24/147
f 90/24/147 60/28/146 59/27/148 89/25/149
f 89/25/149 59/27/148 58/27/150 88/23/151
f 88/23/151 58/27/150 57/3/152 87/23/153
f 87/23/153 57/3/152 56/29/154 86/26/155
f 86/26/155 56/29/154 55/29/156 85/26/157
f 85/26/157 55/29/156 54/30/158 84/26/159
f 84/26/159 54/30/158 53/30/160 83/26/161
f 83/26/161 53/30/160 52/30/162 82/26/163
f 82/26/163 52/30/162 51/31/164 81/23/165
f 81/23/165 51/31/164 50/29/166 80/24/167
f 80/24/167 50/29/166 49/32/168 79/24/169
f 79/24/169 49/32/168 48/32/170 78/24/171
f 78/24/171 48/32/170 47/28/172 77/24/173
f 77/24/173 47/28/172 46/28/174 76/24/175
f 76/24/175 46/28/174 45/28/176 75/24/177
f 75/24/177 45/28/176 44/28/178 74/26/179
f 74/26/179 44/28/178 43/27/180 73/23/181
f 73/23/181 43/27/180 42/3/182 72/23/183
f 72/23/183 42/3/182 41/3/184 71/23/185
f 71/23/185 41/3/184 40/3/186 70/4/187
f 70/4/187 40/3/186 39/5/7 69/6/6
f 4/3/188 3/2/188 9/8/189 68/3/189
f 68/3/189 9/8/189 10/9/190 67/3/191
f 67/3/191 10/9/190 11/9/192 66/27/193
f 66/27/193 11/9/192 12/9/194 65/27/195
f 65/27/195 12/9/194 13/8/196 64/3/197
f 64/3/197 13/8/196 14/8/198 63/3/199
f 63/3/199 14/8/198 15/12/200 62/3/201
f 62/3/201 15/12/200 16/12/202 61/27/203
f 61/27/203 16/12/202 17/12/204 60/28/205
f 60/28/205 17/12/204 18/2/206 59/27/207
f 59/27/207 18/2/206 19/2/208 58/27/209
f 58/27/209 19/2/208 20/15/210 57/3/211
f 57/3/211 20/15/210 21/15/212 56/29/213
f 56/29/213 21/15/212 22/17/214 55/29/215
f 55/29/215 22/17/214 23/18/216 54/30/217
f 54/30/217 23/18/216 24/18/218 53/30/219
f 53/30/219 24/18/218 25/19/220 52/30/221
f 52/30/221 25/19/220 26/15/222 51/31/223
f 51/31/223 26/15/222 27/9/224 50/29/225
f 50/29/225 27/9/224 28/21/226 49/32/227
f 49/32/227 28/21/226 29/21/228 48/32/229
f 48/32/229 29/21/228 30/21/230 47/28/231
f 47/28/231 30/21/230 31/21/232 46/28/233
f 46/28/233 31/21/232 32/9/234 45/28/235
f 45/28/235 32/9/234 33/9/236 44/28/237
f 44/28/237 33/9/236 34/2/238 43/27/239
f 43/27/239 34/2/238 35/12/240 42/3/241
f 42/3/241 35/12/240 36/12/242 41/3/243
f 41/3/243 36/12/242 37/2/244 40/3/245
f 40/3/245 37/2/244 38/2/4 39/5/3
